<?xml version="1.0" encoding="UTF-8" standalone="no"?>
<!-- Created with Inkscape (http://www.inkscape.org/) -->

<svg
   xmlns:dc="http://purl.org/dc/elements/1.1/"
   xmlns:cc="http://creativecommons.org/ns#"
   xmlns:rdf="http://www.w3.org/1999/02/22-rdf-syntax-ns#"
   xmlns:svg="http://www.w3.org/2000/svg"
   xmlns="http://www.w3.org/2000/svg"
   xmlns:sodipodi="http://sodipodi.sourceforge.net/DTD/sodipodi-0.dtd"
   xmlns:inkscape="http://www.inkscape.org/namespaces/inkscape"
   version="1.1"
   id="svg1984"
   width="105.96564"
   height="43.047062"
   viewBox="0 0 105.96564 43.047063"
   sodipodi:docname="logo2.svg"
   inkscape:version="0.92.2 (5c3e80d, 2017-08-06)">
  <metadata
     id="metadata1990">
    <rdf:RDF>
      <cc:Work
         rdf:about="">
        <dc:format>image/svg+xml</dc:format>
        <dc:type
           rdf:resource="http://purl.org/dc/dcmitype/StillImage" />
        <dc:title />
      </cc:Work>
    </rdf:RDF>
  </metadata>
  <defs
     id="defs1988">
    <inkscape:path-effect
       effect="bspline"
       id="path-effect5745"
       is_visible="true"
       weight="33.333333"
       steps="2"
       helper_size="0"
       apply_no_weight="true"
       apply_with_weight="true"
       only_selected="false" />
    <inkscape:path-effect
       effect="bspline"
       id="path-effect5741"
       is_visible="true"
       weight="33.333333"
       steps="2"
       helper_size="0"
       apply_no_weight="true"
       apply_with_weight="true"
       only_selected="false" />
    <inkscape:path-effect
       effect="bspline"
       id="path-effect5737"
       is_visible="true"
       weight="33.333333"
       steps="2"
       helper_size="0"
       apply_no_weight="true"
       apply_with_weight="true"
       only_selected="false" />
    <inkscape:path-effect
       effect="bspline"
       id="path-effect5729"
       is_visible="true"
       weight="33.333333"
       steps="2"
       helper_size="0"
       apply_no_weight="true"
       apply_with_weight="true"
       only_selected="false" />
    <inkscape:path-effect
       effect="bspline"
       id="path-effect5745-3"
       is_visible="true"
       weight="33.333333"
       steps="2"
       helper_size="0"
       apply_no_weight="true"
       apply_with_weight="true"
       only_selected="false" />
  </defs>
  <sodipodi:namedview
     pagecolor="#ffffff"
     bordercolor="#666666"
     borderopacity="1"
     objecttolerance="10"
     gridtolerance="10"
     guidetolerance="10"
     inkscape:pageopacity="0"
     inkscape:pageshadow="2"
     inkscape:window-width="1920"
     inkscape:window-height="1017"
     id="namedview1986"
     showgrid="false"
     inkscape:zoom="5.3425846"
     inkscape:cx="27.640407"
     inkscape:cy="46.325818"
     inkscape:window-x="-8"
     inkscape:window-y="-8"
     inkscape:window-maximized="1"
     inkscape:current-layer="svg1984"
     fit-margin-top="0"
     fit-margin-left="0"
     fit-margin-right="0"
     fit-margin-bottom="0" />
  <text
     xml:space="preserve"
     style="font-style:normal;font-variant:normal;font-weight:normal;font-stretch:normal;font-size:21.33333397px;line-height:1.25;font-family:MagistralC;-inkscape-font-specification:MagistralC;letter-spacing:0px;word-spacing:0px;fill:#ffffff;fill-opacity:1;stroke:none"
     x="131.74782"
     y="22.194761"
     id="text5975"><tspan
       sodipodi:role="line"
       id="tspan5973"
       x="131.74782"
       y="41.56538" /></text>
  <path
     style="opacity:1;fill:#000000;fill-opacity:0;fill-rule:nonzero;stroke:none;stroke-width:0.32823852;stroke-linecap:round;stroke-linejoin:round;stroke-miterlimit:4;stroke-dasharray:none;stroke-opacity:0;paint-order:fill markers stroke"
     d="m 50.308997,26.43353 v -1.999999 l 2.4782,-0.01864 2.47819,-0.01864 0.32824,-0.23847 c 0.78855,-0.572901 1.70073,-0.893049 2.79761,-0.981882 0.91615,-0.07419 2.16012,0.0068 2.65115,0.172712 0.37762,0.127557 1.12597,0.556667 1.37777,0.790029 0.0944,0.08753 0.19974,0.159141 0.23398,0.159141 0.0342,0 0.0623,0.02218 0.0623,0.04923 0,0.02709 2.23038,0.03893 4.9564,0.02633 2.72603,-0.01259 4.95641,-0.0089 4.95641,0.0083 0,0.01716 0.17755,0.615524 0.39454,1.329742 0.217,0.714214 0.38583,1.30728 0.37518,1.317925 -0.0546,0.05455 -6.28153,0.622318 -9.23827,0.842333 -4.39674,0.327175 -9.59723,0.561762 -12.45665,0.56191 l -1.39501,7.2e-5 z"
     id="path5796"
     inkscape:connector-curvature="0" />
  <path
     style="opacity:1;fill:#000000;fill-opacity:0;fill-rule:nonzero;stroke:none;stroke-width:0.32823852;stroke-linecap:round;stroke-linejoin:round;stroke-miterlimit:4;stroke-dasharray:none;stroke-opacity:0;paint-order:fill markers stroke"
     d="m 50.308997,26.43353 v -1.999999 l 2.4782,-0.01864 2.47819,-0.01864 0.32824,-0.23847 c 0.78855,-0.572901 1.70073,-0.893049 2.79761,-0.981882 0.91615,-0.07419 2.16012,0.0068 2.65115,0.172712 0.37762,0.127557 1.12597,0.556667 1.37777,0.790029 0.0944,0.08753 0.19974,0.159141 0.23398,0.159141 0.0342,0 0.0623,0.02218 0.0623,0.04923 0,0.02709 2.23038,0.03893 4.9564,0.02633 2.72603,-0.01259 4.95641,-0.0089 4.95641,0.0083 0,0.01716 0.17755,0.615524 0.39454,1.329742 0.217,0.714214 0.38583,1.30728 0.37518,1.317925 -0.0546,0.05455 -6.28153,0.622318 -9.23827,0.842333 -4.39674,0.327175 -9.59723,0.561762 -12.45665,0.56191 l -1.39501,7.2e-5 z"
     id="path5798"
     inkscape:connector-curvature="0" />
  <path
     style="opacity:1;fill:#000000;fill-opacity:0;fill-rule:nonzero;stroke:none;stroke-width:0.32823852;stroke-linecap:round;stroke-linejoin:round;stroke-miterlimit:4;stroke-dasharray:none;stroke-opacity:0;paint-order:fill markers stroke"
     d="m 50.308997,26.43353 v -1.999999 l 2.4782,-0.01864 2.47819,-0.01864 0.32824,-0.23847 c 0.78855,-0.572901 1.70073,-0.893049 2.79761,-0.981882 0.91615,-0.07419 2.16012,0.0068 2.65115,0.172712 0.37762,0.127557 1.12597,0.556667 1.37777,0.790029 0.0944,0.08753 0.19974,0.159141 0.23398,0.159141 0.0342,0 0.0623,0.02218 0.0623,0.04923 0,0.02709 2.23038,0.03893 4.9564,0.02633 2.72603,-0.01259 4.95641,-0.0089 4.95641,0.0083 0,0.01716 0.17755,0.615524 0.39454,1.329742 0.217,0.714214 0.38583,1.30728 0.37518,1.317925 -0.0546,0.05455 -6.28153,0.622318 -9.23827,0.842333 -4.39674,0.327175 -9.59723,0.561762 -12.45665,0.56191 l -1.39501,7.2e-5 z"
     id="path5800"
     inkscape:connector-curvature="0" />
  <path
     style="opacity:1;fill:#000000;fill-opacity:0;fill-rule:nonzero;stroke:none;stroke-width:0.32823852;stroke-linecap:round;stroke-linejoin:round;stroke-miterlimit:4;stroke-dasharray:none;stroke-opacity:0;paint-order:fill markers stroke"
     d="m 57.325987,43.007888 c -1.05001,-0.100228 -1.96702,-0.419241 -2.82586,-0.983053 -0.58728,-0.385545 -0.97106,-0.748391 -1.64972,-1.559744 -0.27862,-0.333087 -0.59867,-0.653239 -0.71122,-0.711441 -0.12884,-0.06662 -0.49969,-0.127282 -1.00101,-0.163734 -0.438,-0.03184 -0.80375,-0.05881 -0.81277,-0.05991 -0.009,-0.0011 -0.0164,-2.14377 -0.0164,-4.761471 0,-3.763668 0.0172,-4.759512 0.0821,-4.75971 2.18608,-0.0067 8.2268,-0.237722 11.20934,-0.42875 3.36565,-0.215567 9.91341,-0.771724 11.63605,-0.988357 l 0.31183,-0.03921 v 0.826754 0.826758 h 1.72896 1.72895 l 0.0453,-10.38875 c 0.0551,-12.6481142 0.13595,-16.8498525 0.3442,-17.8910955 0.0326,-0.1629436 0.10363,-0.2372048 0.33327,-0.3483719 0.49103,-0.2376997 1.00996,-0.059479 1.1357,0.3900412 0.0368,0.1316863 0.0963,1.1699861 0.13217,2.3073324 0.0679,2.1530556 0.19547,18.8462858 0.19656,25.7152038 l 7.7e-4,3.952991 -0.20235,0.230459 c -0.33359,0.37994 -0.98365,0.481655 -1.37834,0.21567 -0.12183,-0.0821 -0.29138,-0.251962 -0.37678,-0.377475 -0.0854,-0.125513 -0.19688,-0.224105 -0.24774,-0.219087 -0.0509,0.005 -0.0925,-0.03192 -0.0925,-0.08206 0,-0.07551 -0.29891,-0.09118 -1.73966,-0.09118 -1.50261,0 -1.73967,0.01343 -1.73967,0.09847 0,0.05416 -0.0443,0.09847 -0.0985,0.09847 -0.0667,0 -0.0985,0.06674 -0.0985,0.206813 0,0.554887 -0.14441,3.505223 -0.19609,4.006076 -0.0355,0.343828 -0.11272,0.675218 -0.19496,0.836418 -0.41561,0.81467 -3.76563,2.898343 -5.63607,3.505565 -0.82559,0.268025 -1.6994,0.45804 -2.63838,0.573741 -0.74739,0.09209 -6.40626,0.141127 -7.22855,0.06264 z"
     id="path5802"
     inkscape:connector-curvature="0" />
  <path
     style="opacity:1;fill:#000000;fill-opacity:0;fill-rule:nonzero;stroke:none;stroke-width:0.32823852;stroke-linecap:round;stroke-linejoin:round;stroke-miterlimit:4;stroke-dasharray:none;stroke-opacity:0;paint-order:fill markers stroke"
     d="m 57.325987,43.007888 c -1.05001,-0.100228 -1.96702,-0.419241 -2.82586,-0.983053 -0.58728,-0.385545 -0.97106,-0.748391 -1.64972,-1.559744 -0.27862,-0.333087 -0.59867,-0.653239 -0.71122,-0.711441 -0.12884,-0.06662 -0.49969,-0.127282 -1.00101,-0.163734 -0.438,-0.03184 -0.80375,-0.05881 -0.81277,-0.05991 -0.009,-0.0011 -0.0164,-2.14377 -0.0164,-4.761471 0,-3.763668 0.0172,-4.759512 0.0821,-4.75971 2.18608,-0.0067 8.2268,-0.237722 11.20934,-0.42875 3.36565,-0.215567 9.91341,-0.771724 11.63605,-0.988357 l 0.31183,-0.03921 v 0.826754 0.826758 h 1.72896 1.72895 l 0.0453,-10.38875 c 0.0551,-12.6481142 0.13595,-16.8498525 0.3442,-17.8910955 0.0326,-0.1629436 0.10363,-0.2372048 0.33327,-0.3483719 0.49103,-0.2376997 1.00996,-0.059479 1.1357,0.3900412 0.0368,0.1316863 0.0963,1.1699861 0.13217,2.3073324 0.0679,2.1530556 0.19547,18.8462858 0.19656,25.7152038 l 7.7e-4,3.952991 -0.20235,0.230459 c -0.33359,0.37994 -0.98365,0.481655 -1.37834,0.21567 -0.12183,-0.0821 -0.29138,-0.251962 -0.37678,-0.377475 -0.0854,-0.125513 -0.19688,-0.224105 -0.24774,-0.219087 -0.0509,0.005 -0.0925,-0.03192 -0.0925,-0.08206 0,-0.07551 -0.29891,-0.09118 -1.73966,-0.09118 -1.50261,0 -1.73967,0.01343 -1.73967,0.09847 0,0.05416 -0.0443,0.09847 -0.0985,0.09847 -0.0667,0 -0.0985,0.06674 -0.0985,0.206813 0,0.554887 -0.14441,3.505223 -0.19609,4.006076 -0.0355,0.343828 -0.11272,0.675218 -0.19496,0.836418 -0.41561,0.81467 -3.76563,2.898343 -5.63607,3.505565 -0.82559,0.268025 -1.6994,0.45804 -2.63838,0.573741 -0.74739,0.09209 -6.40626,0.141127 -7.22855,0.06264 z"
     id="path5804"
     inkscape:connector-curvature="0" />
  <path
     style="opacity:1;fill:#000000;fill-opacity:0;fill-rule:nonzero;stroke:none;stroke-width:0.32823852;stroke-linecap:round;stroke-linejoin:round;stroke-miterlimit:4;stroke-dasharray:none;stroke-opacity:0;paint-order:fill markers stroke"
     d="m 57.325987,43.007888 c -1.05001,-0.100228 -1.96702,-0.419241 -2.82586,-0.983053 -0.58728,-0.385545 -0.97106,-0.748391 -1.64972,-1.559744 -0.27862,-0.333087 -0.59867,-0.653239 -0.71122,-0.711441 -0.12884,-0.06662 -0.49969,-0.127282 -1.00101,-0.163734 -0.438,-0.03184 -0.80375,-0.05881 -0.81277,-0.05991 -0.009,-0.0011 -0.0164,-2.14377 -0.0164,-4.761471 0,-3.763668 0.0172,-4.759512 0.0821,-4.75971 2.18608,-0.0067 8.2268,-0.237722 11.20934,-0.42875 3.36565,-0.215567 9.91341,-0.771724 11.63605,-0.988357 l 0.31183,-0.03921 v 0.826754 0.826758 h 1.72896 1.72895 l 0.0453,-10.38875 c 0.0551,-12.6481142 0.13595,-16.8498525 0.3442,-17.8910955 0.0326,-0.1629436 0.10363,-0.2372048 0.33327,-0.3483719 0.49103,-0.2376997 1.00996,-0.059479 1.1357,0.3900412 0.0368,0.1316863 0.0963,1.1699861 0.13217,2.3073324 0.0679,2.1530556 0.19547,18.8462858 0.19656,25.7152038 l 7.7e-4,3.952991 -0.20235,0.230459 c -0.33359,0.37994 -0.98365,0.481655 -1.37834,0.21567 -0.12183,-0.0821 -0.29138,-0.251962 -0.37678,-0.377475 -0.0854,-0.125513 -0.19688,-0.224105 -0.24774,-0.219087 -0.0509,0.005 -0.0925,-0.03192 -0.0925,-0.08206 0,-0.07551 -0.29891,-0.09118 -1.73966,-0.09118 -1.50261,0 -1.73967,0.01343 -1.73967,0.09847 0,0.05416 -0.0443,0.09847 -0.0985,0.09847 -0.0667,0 -0.0985,0.06674 -0.0985,0.206813 0,0.554887 -0.14441,3.505223 -0.19609,4.006076 -0.0355,0.343828 -0.11272,0.675218 -0.19496,0.836418 -0.41561,0.81467 -3.76563,2.898343 -5.63607,3.505565 -0.82559,0.268025 -1.6994,0.45804 -2.63838,0.573741 -0.74739,0.09209 -6.40626,0.141127 -7.22855,0.06264 z"
     id="path5806"
     inkscape:connector-curvature="0" />
  <path
     style="opacity:1;fill:#000000;fill-opacity:0;fill-rule:nonzero;stroke:none;stroke-width:0.32823852;stroke-linecap:round;stroke-linejoin:round;stroke-miterlimit:4;stroke-dasharray:none;stroke-opacity:0;paint-order:fill markers stroke"
     d="m 57.325987,43.007888 c -1.05001,-0.100228 -1.96702,-0.419241 -2.82586,-0.983053 -0.58728,-0.385545 -0.97106,-0.748391 -1.64972,-1.559744 -0.27862,-0.333087 -0.59867,-0.653239 -0.71122,-0.711441 -0.12884,-0.06662 -0.49969,-0.127282 -1.00101,-0.163734 -0.438,-0.03184 -0.80375,-0.05881 -0.81277,-0.05991 -0.009,-0.0011 -0.0164,-2.14377 -0.0164,-4.761471 0,-3.763668 0.0172,-4.759512 0.0821,-4.75971 2.18608,-0.0067 8.2268,-0.237722 11.20934,-0.42875 3.36565,-0.215567 9.91341,-0.771724 11.63605,-0.988357 l 0.31183,-0.03921 v 0.826754 0.826758 h 1.72896 1.72895 l 0.0453,-10.38875 c 0.0551,-12.6481142 0.13595,-16.8498525 0.3442,-17.8910955 0.0326,-0.1629436 0.10363,-0.2372048 0.33327,-0.3483719 0.49103,-0.2376997 1.00996,-0.059479 1.1357,0.3900412 0.0368,0.1316863 0.0963,1.1699861 0.13217,2.3073324 0.0679,2.1530556 0.19547,18.8462858 0.19656,25.7152038 l 7.7e-4,3.952991 -0.20235,0.230459 c -0.33359,0.37994 -0.98365,0.481655 -1.37834,0.21567 -0.12183,-0.0821 -0.29138,-0.251962 -0.37678,-0.377475 -0.0854,-0.125513 -0.19688,-0.224105 -0.24774,-0.219087 -0.0509,0.005 -0.0925,-0.03192 -0.0925,-0.08206 0,-0.07551 -0.29891,-0.09118 -1.73966,-0.09118 -1.50261,0 -1.73967,0.01343 -1.73967,0.09847 0,0.05416 -0.0443,0.09847 -0.0985,0.09847 -0.0667,0 -0.0985,0.06674 -0.0985,0.206813 0,0.554887 -0.14441,3.505223 -0.19609,4.006076 -0.0355,0.343828 -0.11272,0.675218 -0.19496,0.836418 -0.41561,0.81467 -3.76563,2.898343 -5.63607,3.505565 -0.82559,0.268025 -1.6994,0.45804 -2.63838,0.573741 -0.74739,0.09209 -6.40626,0.141127 -7.22855,0.06264 z"
     id="path5808"
     inkscape:connector-curvature="0" />
  <path
     style="opacity:1;fill:#000000;fill-opacity:0;fill-rule:nonzero;stroke:none;stroke-width:0.32823852;stroke-linecap:round;stroke-linejoin:round;stroke-miterlimit:4;stroke-dasharray:none;stroke-opacity:0;paint-order:fill markers stroke"
     d="m 57.325987,43.007888 c -1.05001,-0.100228 -1.96702,-0.419241 -2.82586,-0.983053 -0.58728,-0.385545 -0.97106,-0.748391 -1.64972,-1.559744 -0.27862,-0.333087 -0.59867,-0.653239 -0.71122,-0.711441 -0.12884,-0.06662 -0.49969,-0.127282 -1.00101,-0.163734 -0.438,-0.03184 -0.80375,-0.05881 -0.81277,-0.05991 -0.009,-0.0011 -0.0164,-2.14377 -0.0164,-4.761471 0,-3.763668 0.0172,-4.759512 0.0821,-4.75971 2.18608,-0.0067 8.2268,-0.237722 11.20934,-0.42875 3.36565,-0.215567 9.91341,-0.771724 11.63605,-0.988357 l 0.31183,-0.03921 v 0.826754 0.826758 h 1.72896 1.72895 l 0.0453,-10.38875 c 0.0551,-12.6481142 0.13595,-16.8498525 0.3442,-17.8910955 0.0326,-0.1629436 0.10363,-0.2372048 0.33327,-0.3483719 0.49103,-0.2376997 1.00996,-0.059479 1.1357,0.3900412 0.0368,0.1316863 0.0963,1.1699861 0.13217,2.3073324 0.0679,2.1530556 0.19547,18.8462858 0.19656,25.7152038 l 7.7e-4,3.952991 -0.20235,0.230459 c -0.33359,0.37994 -0.98365,0.481655 -1.37834,0.21567 -0.12183,-0.0821 -0.29138,-0.251962 -0.37678,-0.377475 -0.0854,-0.125513 -0.19688,-0.224105 -0.24774,-0.219087 -0.0509,0.005 -0.0925,-0.03192 -0.0925,-0.08206 0,-0.07551 -0.29891,-0.09118 -1.73966,-0.09118 -1.50261,0 -1.73967,0.01343 -1.73967,0.09847 0,0.05416 -0.0443,0.09847 -0.0985,0.09847 -0.0667,0 -0.0985,0.06674 -0.0985,0.206813 0,0.554887 -0.14441,3.505223 -0.19609,4.006076 -0.0355,0.343828 -0.11272,0.675218 -0.19496,0.836418 -0.41561,0.81467 -3.76563,2.898343 -5.63607,3.505565 -0.82559,0.268025 -1.6994,0.45804 -2.63838,0.573741 -0.74739,0.09209 -6.40626,0.141127 -7.22855,0.06264 z"
     id="path5810"
     inkscape:connector-curvature="0" />
  <path
     style="opacity:1;fill:#000000;fill-opacity:0;fill-rule:nonzero;stroke:none;stroke-width:0.32823852;stroke-linecap:round;stroke-linejoin:round;stroke-miterlimit:4;stroke-dasharray:none;stroke-opacity:0;paint-order:fill markers stroke"
     d="m 57.325987,43.007888 c -1.05001,-0.100228 -1.96702,-0.419241 -2.82586,-0.983053 -0.58728,-0.385545 -0.97106,-0.748391 -1.64972,-1.559744 -0.27862,-0.333087 -0.59867,-0.653239 -0.71122,-0.711441 -0.12884,-0.06662 -0.49969,-0.127282 -1.00101,-0.163734 -0.438,-0.03184 -0.80375,-0.05881 -0.81277,-0.05991 -0.009,-0.0011 -0.0164,-2.14377 -0.0164,-4.761471 0,-3.763668 0.0172,-4.759512 0.0821,-4.75971 2.18608,-0.0067 8.2268,-0.237722 11.20934,-0.42875 3.36565,-0.215567 9.91341,-0.771724 11.63605,-0.988357 l 0.31183,-0.03921 v 0.826754 0.826758 h 1.72896 1.72895 l 0.0453,-10.38875 c 0.0551,-12.6481142 0.13595,-16.8498525 0.3442,-17.8910955 0.0326,-0.1629436 0.10363,-0.2372048 0.33327,-0.3483719 0.49103,-0.2376997 1.00996,-0.059479 1.1357,0.3900412 0.0368,0.1316863 0.0963,1.1699861 0.13217,2.3073324 0.0679,2.1530556 0.19547,18.8462858 0.19656,25.7152038 l 7.7e-4,3.952991 -0.20235,0.230459 c -0.33359,0.37994 -0.98365,0.481655 -1.37834,0.21567 -0.12183,-0.0821 -0.29138,-0.251962 -0.37678,-0.377475 -0.0854,-0.125513 -0.19688,-0.224105 -0.24774,-0.219087 -0.0509,0.005 -0.0925,-0.03192 -0.0925,-0.08206 0,-0.07551 -0.29891,-0.09118 -1.73966,-0.09118 -1.50261,0 -1.73967,0.01343 -1.73967,0.09847 0,0.05416 -0.0443,0.09847 -0.0985,0.09847 -0.0667,0 -0.0985,0.06674 -0.0985,0.206813 0,0.554887 -0.14441,3.505223 -0.19609,4.006076 -0.0355,0.343828 -0.11272,0.675218 -0.19496,0.836418 -0.41561,0.81467 -3.76563,2.898343 -5.63607,3.505565 -0.82559,0.268025 -1.6994,0.45804 -2.63838,0.573741 -0.74739,0.09209 -6.40626,0.141127 -7.22855,0.06264 z"
     id="path5812"
     inkscape:connector-curvature="0" />
  <path
     style="opacity:1;fill:#000000;fill-opacity:1;fill-rule:nonzero;stroke:none;stroke-width:0.32823852;stroke-linecap:round;stroke-linejoin:round;stroke-miterlimit:4;stroke-dasharray:none;stroke-opacity:0;paint-order:fill markers stroke"
     d="m 57.325987,43.007888 c -1.05001,-0.100228 -1.96702,-0.419241 -2.82586,-0.983053 -0.58728,-0.385545 -0.97106,-0.748391 -1.64972,-1.559744 -0.27862,-0.333087 -0.59867,-0.653239 -0.71122,-0.711441 -0.12884,-0.06662 -0.49969,-0.127282 -1.00101,-0.163734 -0.438,-0.03184 -0.80375,-0.05881 -0.81277,-0.05991 -0.009,-0.0011 -0.0164,-2.14377 -0.0164,-4.761471 0,-3.763668 0.0172,-4.759512 0.0821,-4.75971 2.18608,-0.0067 8.2268,-0.237722 11.20934,-0.42875 3.36565,-0.215567 9.91341,-0.771724 11.63605,-0.988357 l 0.31183,-0.03921 v 0.826754 0.826758 h 1.72896 1.72895 l 0.0453,-10.38875 c 0.0551,-12.6481142 0.13595,-16.8498525 0.3442,-17.8910955 0.0326,-0.1629436 0.10363,-0.2372048 0.33327,-0.3483719 0.49103,-0.2376997 1.00996,-0.059479 1.1357,0.3900412 0.0368,0.1316863 0.0963,1.1699861 0.13217,2.3073324 0.0679,2.1530556 0.19547,18.8462858 0.19656,25.7152038 l 7.7e-4,3.952991 -0.20235,0.230459 c -0.33359,0.37994 -0.98365,0.481655 -1.37834,0.21567 -0.12183,-0.0821 -0.29138,-0.251962 -0.37678,-0.377475 -0.0854,-0.125513 -0.19688,-0.224105 -0.24774,-0.219087 -0.0509,0.005 -0.0925,-0.03192 -0.0925,-0.08206 0,-0.07551 -0.29891,-0.09118 -1.73966,-0.09118 -1.50261,0 -1.73967,0.01343 -1.73967,0.09847 0,0.05416 -0.0443,0.09847 -0.0985,0.09847 -0.0667,0 -0.0985,0.06674 -0.0985,0.206813 0,0.554887 -0.14441,3.505223 -0.19609,4.006076 -0.0355,0.343828 -0.11272,0.675218 -0.19496,0.836418 -0.41561,0.81467 -3.76563,2.898343 -5.63607,3.505565 -0.82559,0.268025 -1.6994,0.45804 -2.63838,0.573741 -0.74739,0.09209 -6.40626,0.141127 -7.22855,0.06264 z"
     id="path5814"
     inkscape:connector-curvature="0" />
  <path
     style="opacity:1;fill:#000000;fill-opacity:1;fill-rule:nonzero;stroke:none;stroke-width:0.32823852;stroke-linecap:round;stroke-linejoin:round;stroke-miterlimit:4;stroke-dasharray:none;stroke-opacity:0;paint-order:fill markers stroke"
     d="m 50.308997,26.43353 v -1.999999 l 2.4782,-0.01864 2.47819,-0.01864 0.32824,-0.23847 c 0.78855,-0.572901 1.70073,-0.893049 2.79761,-0.981882 0.91615,-0.07419 2.16012,0.0068 2.65115,0.172712 0.37762,0.127557 1.12597,0.556667 1.37777,0.790029 0.0944,0.08753 0.19974,0.159141 0.23398,0.159141 0.0342,0 0.0623,0.02218 0.0623,0.04923 0,0.02709 2.23038,0.03893 4.9564,0.02633 2.72603,-0.01259 4.95641,-0.0089 4.95641,0.0083 0,0.01716 0.17755,0.615524 0.39454,1.329742 0.217,0.714214 0.38583,1.30728 0.37518,1.317925 -0.0546,0.05455 -6.28153,0.622318 -9.23827,0.842333 -4.39674,0.327175 -9.59723,0.561762 -12.45665,0.56191 l -1.39501,7.2e-5 z"
     id="path5816"
     inkscape:connector-curvature="0" />
  <path
     style="opacity:1;fill:#000000;fill-opacity:0;fill-rule:nonzero;stroke:none;stroke-width:0.32823852;stroke-linecap:round;stroke-linejoin:round;stroke-miterlimit:4;stroke-dasharray:none;stroke-opacity:0;paint-order:fill markers stroke"
     d="m 51.010447,26.43353 v -1.999999 l -2.4782,-0.01864 -2.4782,-0.01864 -0.32824,-0.23847 c -0.788544,-0.572901 -1.700722,-0.893049 -2.7976,-0.981882 -0.916149,-0.07419 -2.160119,0.0068 -2.651156,0.172712 -0.377619,0.127557 -1.125968,0.556667 -1.377771,0.790029 -0.09444,0.08753 -0.199736,0.159141 -0.233981,0.159141 -0.03423,0 -0.06226,0.02218 -0.06226,0.04923 4e-6,0.02709 -2.230376,0.03893 -4.956402,0.02633 -2.726026,-0.01259 -4.95641,-0.0089 -4.95641,0.0083 0,0.01716 -0.177543,0.615524 -0.394534,1.329742 -0.216996,0.714214 -0.38583,1.30728 -0.375185,1.317925 0.05455,0.05455 6.281535,0.622318 9.238274,0.842333 4.396742,0.327175 9.597225,0.561762 12.456655,0.56191 l 1.39501,7.2e-5 z"
     id="path5796-6"
     inkscape:connector-curvature="0" />
  <path
     style="opacity:1;fill:#000000;fill-opacity:0;fill-rule:nonzero;stroke:none;stroke-width:0.32823852;stroke-linecap:round;stroke-linejoin:round;stroke-miterlimit:4;stroke-dasharray:none;stroke-opacity:0;paint-order:fill markers stroke"
     d="m 51.010447,26.43353 v -1.999999 l -2.4782,-0.01864 -2.4782,-0.01864 -0.32824,-0.23847 c -0.788544,-0.572901 -1.700722,-0.893049 -2.7976,-0.981882 -0.916149,-0.07419 -2.160119,0.0068 -2.651156,0.172712 -0.377619,0.127557 -1.125968,0.556667 -1.377771,0.790029 -0.09444,0.08753 -0.199736,0.159141 -0.233981,0.159141 -0.03423,0 -0.06226,0.02218 -0.06226,0.04923 4e-6,0.02709 -2.230376,0.03893 -4.956402,0.02633 -2.726026,-0.01259 -4.95641,-0.0089 -4.95641,0.0083 0,0.01716 -0.177543,0.615524 -0.394534,1.329742 -0.216996,0.714214 -0.38583,1.30728 -0.375185,1.317925 0.05455,0.05455 6.281535,0.622318 9.238274,0.842333 4.396742,0.327175 9.597225,0.561762 12.456655,0.56191 l 1.39501,7.2e-5 z"
     id="path5798-1"
     inkscape:connector-curvature="0" />
  <path
     style="opacity:1;fill:#000000;fill-opacity:0;fill-rule:nonzero;stroke:none;stroke-width:0.32823852;stroke-linecap:round;stroke-linejoin:round;stroke-miterlimit:4;stroke-dasharray:none;stroke-opacity:0;paint-order:fill markers stroke"
     d="m 51.010447,26.43353 v -1.999999 l -2.4782,-0.01864 -2.4782,-0.01864 -0.32824,-0.23847 c -0.788544,-0.572901 -1.700722,-0.893049 -2.7976,-0.981882 -0.916149,-0.07419 -2.160119,0.0068 -2.651156,0.172712 -0.377619,0.127557 -1.125968,0.556667 -1.377771,0.790029 -0.09444,0.08753 -0.199736,0.159141 -0.233981,0.159141 -0.03423,0 -0.06226,0.02218 -0.06226,0.04923 4e-6,0.02709 -2.230376,0.03893 -4.956402,0.02633 -2.726026,-0.01259 -4.95641,-0.0089 -4.95641,0.0083 0,0.01716 -0.177543,0.615524 -0.394534,1.329742 -0.216996,0.714214 -0.38583,1.30728 -0.375185,1.317925 0.05455,0.05455 6.281535,0.622318 9.238274,0.842333 4.396742,0.327175 9.597225,0.561762 12.456655,0.56191 l 1.39501,7.2e-5 z"
     id="path5800-1"
     inkscape:connector-curvature="0" />
  <path
     style="opacity:1;fill:#000000;fill-opacity:0;fill-rule:nonzero;stroke:none;stroke-width:0.32823852;stroke-linecap:round;stroke-linejoin:round;stroke-miterlimit:4;stroke-dasharray:none;stroke-opacity:0;paint-order:fill markers stroke"
     d="m 43.993453,43.007888 c 1.050007,-0.100228 1.967024,-0.419241 2.825854,-0.983053 0.58728,-0.385545 0.97107,-0.748391 1.64973,-1.559744 0.27861,-0.333087 0.59866,-0.653239 0.71122,-0.711441 0.12883,-0.06662 0.49969,-0.127282 1.00101,-0.163734 0.438,-0.03184 0.80375,-0.05881 0.81277,-0.05991 0.009,-0.0011 0.0164,-2.14377 0.0164,-4.761471 0,-3.763668 -0.0172,-4.759512 -0.0821,-4.75971 -2.18609,-0.0067 -8.226809,-0.237722 -11.209344,-0.42875 -3.365656,-0.215571 -9.913419,-0.771728 -11.63606,-0.988361 l -0.311826,-0.03921 v 0.826754 0.826758 h -1.728939 -1.728954 l -0.04527,-10.38875 C 24.212875,7.169153 24.132039,2.9674158 23.923791,1.9261697 23.891209,1.7632284 23.820158,1.6889653 23.590518,1.5777982 c -0.491023,-0.237699 -1.009957,-0.059477 -1.1357,0.3900416 -0.03684,0.1316882 -0.09631,1.169988 -0.132165,2.3073335 -0.06788,2.1530552 -0.195475,18.8462847 -0.196566,25.7152027 l -6.85e-4,3.952991 0.202346,0.230459 c 0.333592,0.37994 0.983646,0.481655 1.378342,0.21567 0.121825,-0.0821 0.291374,-0.251962 0.376773,-0.377475 0.0854,-0.125513 0.196882,-0.224105 0.247741,-0.219087 0.05089,0.005 0.0925,-0.03192 0.0925,-0.08206 0,-0.07551 0.298915,-0.09118 1.739662,-0.09118 1.502604,0 1.739665,0.01343 1.739665,0.09847 0,0.05416 0.04431,0.09847 0.09847,0.09847 0.06669,0 0.09847,0.06674 0.09847,0.206813 0,0.554887 0.144417,3.505223 0.196093,4.006076 0.03548,0.343828 0.112717,0.675218 0.194956,0.836418 0.415613,0.81467 3.76563,2.898343 5.636072,3.505565 0.825593,0.268025 1.699402,0.45804 2.638379,0.573741 0.747391,0.09209 6.406265,0.141127 7.228555,0.06264 z"
     id="path5802-2"
     inkscape:connector-curvature="0" />
  <path
     style="opacity:1;fill:#000000;fill-opacity:0;fill-rule:nonzero;stroke:none;stroke-width:0.32823852;stroke-linecap:round;stroke-linejoin:round;stroke-miterlimit:4;stroke-dasharray:none;stroke-opacity:0;paint-order:fill markers stroke"
     d="m 43.993453,43.007888 c 1.050007,-0.100228 1.967024,-0.419241 2.825854,-0.983053 0.58728,-0.385545 0.97107,-0.748391 1.64973,-1.559744 0.27861,-0.333087 0.59866,-0.653239 0.71122,-0.711441 0.12883,-0.06662 0.49969,-0.127282 1.00101,-0.163734 0.438,-0.03184 0.80375,-0.05881 0.81277,-0.05991 0.009,-0.0011 0.0164,-2.14377 0.0164,-4.761471 0,-3.763668 -0.0172,-4.759512 -0.0821,-4.75971 -2.18609,-0.0067 -8.226809,-0.237722 -11.209344,-0.42875 -3.365656,-0.215571 -9.913419,-0.771728 -11.63606,-0.988361 l -0.311826,-0.03921 v 0.826754 0.826758 h -1.728939 -1.728954 l -0.04527,-10.38875 C 24.212875,7.169153 24.132039,2.9674158 23.923791,1.9261697 23.891209,1.7632284 23.820158,1.6889653 23.590518,1.5777982 c -0.491023,-0.237699 -1.009957,-0.059477 -1.1357,0.3900416 -0.03684,0.1316882 -0.09631,1.169988 -0.132165,2.3073335 -0.06788,2.1530552 -0.195475,18.8462847 -0.196566,25.7152027 l -6.85e-4,3.952991 0.202346,0.230459 c 0.333592,0.37994 0.983646,0.481655 1.378342,0.21567 0.121825,-0.0821 0.291374,-0.251962 0.376773,-0.377475 0.0854,-0.125513 0.196882,-0.224105 0.247741,-0.219087 0.05089,0.005 0.0925,-0.03192 0.0925,-0.08206 0,-0.07551 0.298915,-0.09118 1.739662,-0.09118 1.502604,0 1.739665,0.01343 1.739665,0.09847 0,0.05416 0.04431,0.09847 0.09847,0.09847 0.06669,0 0.09847,0.06674 0.09847,0.206813 0,0.554887 0.144417,3.505223 0.196093,4.006076 0.03548,0.343828 0.112717,0.675218 0.194956,0.836418 0.415613,0.81467 3.76563,2.898343 5.636072,3.505565 0.825593,0.268025 1.699402,0.45804 2.638379,0.573741 0.747391,0.09209 6.406265,0.141127 7.228555,0.06264 z"
     id="path5804-3"
     inkscape:connector-curvature="0" />
  <path
     style="opacity:1;fill:#000000;fill-opacity:0;fill-rule:nonzero;stroke:none;stroke-width:0.32823852;stroke-linecap:round;stroke-linejoin:round;stroke-miterlimit:4;stroke-dasharray:none;stroke-opacity:0;paint-order:fill markers stroke"
     d="m 43.993453,43.007888 c 1.050007,-0.100228 1.967024,-0.419241 2.825854,-0.983053 0.58728,-0.385545 0.97107,-0.748391 1.64973,-1.559744 0.27861,-0.333087 0.59866,-0.653239 0.71122,-0.711441 0.12883,-0.06662 0.49969,-0.127282 1.00101,-0.163734 0.438,-0.03184 0.80375,-0.05881 0.81277,-0.05991 0.009,-0.0011 0.0164,-2.14377 0.0164,-4.761471 0,-3.763668 -0.0172,-4.759512 -0.0821,-4.75971 -2.18609,-0.0067 -8.226809,-0.237722 -11.209344,-0.42875 -3.365656,-0.215571 -9.913419,-0.771728 -11.63606,-0.988361 l -0.311826,-0.03921 v 0.826754 0.826758 h -1.728939 -1.728954 l -0.04527,-10.38875 C 24.212875,7.169153 24.132039,2.9674158 23.923791,1.9261697 23.891209,1.7632284 23.820158,1.6889653 23.590518,1.5777982 c -0.491023,-0.237699 -1.009957,-0.059477 -1.1357,0.3900416 -0.03684,0.1316882 -0.09631,1.169988 -0.132165,2.3073335 -0.06788,2.1530552 -0.195475,18.8462847 -0.196566,25.7152027 l -6.85e-4,3.952991 0.202346,0.230459 c 0.333592,0.37994 0.983646,0.481655 1.378342,0.21567 0.121825,-0.0821 0.291374,-0.251962 0.376773,-0.377475 0.0854,-0.125513 0.196882,-0.224105 0.247741,-0.219087 0.05089,0.005 0.0925,-0.03192 0.0925,-0.08206 0,-0.07551 0.298915,-0.09118 1.739662,-0.09118 1.502604,0 1.739665,0.01343 1.739665,0.09847 0,0.05416 0.04431,0.09847 0.09847,0.09847 0.06669,0 0.09847,0.06674 0.09847,0.206813 0,0.554887 0.144417,3.505223 0.196093,4.006076 0.03548,0.343828 0.112717,0.675218 0.194956,0.836418 0.415613,0.81467 3.76563,2.898343 5.636072,3.505565 0.825593,0.268025 1.699402,0.45804 2.638379,0.573741 0.747391,0.09209 6.406265,0.141127 7.228555,0.06264 z"
     id="path5806-3"
     inkscape:connector-curvature="0" />
  <path
     style="opacity:1;fill:#000000;fill-opacity:0;fill-rule:nonzero;stroke:none;stroke-width:0.32823852;stroke-linecap:round;stroke-linejoin:round;stroke-miterlimit:4;stroke-dasharray:none;stroke-opacity:0;paint-order:fill markers stroke"
     d="m 43.993453,43.007888 c 1.050007,-0.100228 1.967024,-0.419241 2.825854,-0.983053 0.58728,-0.385545 0.97107,-0.748391 1.64973,-1.559744 0.27861,-0.333087 0.59866,-0.653239 0.71122,-0.711441 0.12883,-0.06662 0.49969,-0.127282 1.00101,-0.163734 0.438,-0.03184 0.80375,-0.05881 0.81277,-0.05991 0.009,-0.0011 0.0164,-2.14377 0.0164,-4.761471 0,-3.763668 -0.0172,-4.759512 -0.0821,-4.75971 -2.18609,-0.0067 -8.226809,-0.237722 -11.209344,-0.42875 -3.365656,-0.215571 -9.913419,-0.771728 -11.63606,-0.988361 l -0.311826,-0.03921 v 0.826754 0.826758 h -1.728939 -1.728954 l -0.04527,-10.38875 C 24.212875,7.169153 24.132039,2.9674158 23.923791,1.9261697 23.891209,1.7632284 23.820158,1.6889653 23.590518,1.5777982 c -0.491023,-0.237699 -1.009957,-0.059477 -1.1357,0.3900416 -0.03684,0.1316882 -0.09631,1.169988 -0.132165,2.3073335 -0.06788,2.1530552 -0.195475,18.8462847 -0.196566,25.7152027 l -6.85e-4,3.952991 0.202346,0.230459 c 0.333592,0.37994 0.983646,0.481655 1.378342,0.21567 0.121825,-0.0821 0.291374,-0.251962 0.376773,-0.377475 0.0854,-0.125513 0.196882,-0.224105 0.247741,-0.219087 0.05089,0.005 0.0925,-0.03192 0.0925,-0.08206 0,-0.07551 0.298915,-0.09118 1.739662,-0.09118 1.502604,0 1.739665,0.01343 1.739665,0.09847 0,0.05416 0.04431,0.09847 0.09847,0.09847 0.06669,0 0.09847,0.06674 0.09847,0.206813 0,0.554887 0.144417,3.505223 0.196093,4.006076 0.03548,0.343828 0.112717,0.675218 0.194956,0.836418 0.415613,0.81467 3.76563,2.898343 5.636072,3.505565 0.825593,0.268025 1.699402,0.45804 2.638379,0.573741 0.747391,0.09209 6.406265,0.141127 7.228555,0.06264 z"
     id="path5808-5"
     inkscape:connector-curvature="0" />
  <path
     style="opacity:1;fill:#000000;fill-opacity:0;fill-rule:nonzero;stroke:none;stroke-width:0.32823852;stroke-linecap:round;stroke-linejoin:round;stroke-miterlimit:4;stroke-dasharray:none;stroke-opacity:0;paint-order:fill markers stroke"
     d="m 43.993453,43.007888 c 1.050007,-0.100228 1.967024,-0.419241 2.825854,-0.983053 0.58728,-0.385545 0.97107,-0.748391 1.64973,-1.559744 0.27861,-0.333087 0.59866,-0.653239 0.71122,-0.711441 0.12883,-0.06662 0.49969,-0.127282 1.00101,-0.163734 0.438,-0.03184 0.80375,-0.05881 0.81277,-0.05991 0.009,-0.0011 0.0164,-2.14377 0.0164,-4.761471 0,-3.763668 -0.0172,-4.759512 -0.0821,-4.75971 -2.18609,-0.0067 -8.226809,-0.237722 -11.209344,-0.42875 -3.365656,-0.215571 -9.913419,-0.771728 -11.63606,-0.988361 l -0.311826,-0.03921 v 0.826754 0.826758 h -1.728939 -1.728954 l -0.04527,-10.38875 C 24.212875,7.169153 24.132039,2.9674158 23.923791,1.9261697 23.891209,1.7632284 23.820158,1.6889653 23.590518,1.5777982 c -0.491023,-0.237699 -1.009957,-0.059477 -1.1357,0.3900416 -0.03684,0.1316882 -0.09631,1.169988 -0.132165,2.3073335 -0.06788,2.1530552 -0.195475,18.8462847 -0.196566,25.7152027 l -6.85e-4,3.952991 0.202346,0.230459 c 0.333592,0.37994 0.983646,0.481655 1.378342,0.21567 0.121825,-0.0821 0.291374,-0.251962 0.376773,-0.377475 0.0854,-0.125513 0.196882,-0.224105 0.247741,-0.219087 0.05089,0.005 0.0925,-0.03192 0.0925,-0.08206 0,-0.07551 0.298915,-0.09118 1.739662,-0.09118 1.502604,0 1.739665,0.01343 1.739665,0.09847 0,0.05416 0.04431,0.09847 0.09847,0.09847 0.06669,0 0.09847,0.06674 0.09847,0.206813 0,0.554887 0.144417,3.505223 0.196093,4.006076 0.03548,0.343828 0.112717,0.675218 0.194956,0.836418 0.415613,0.81467 3.76563,2.898343 5.636072,3.505565 0.825593,0.268025 1.699402,0.45804 2.638379,0.573741 0.747391,0.09209 6.406265,0.141127 7.228555,0.06264 z"
     id="path5810-8"
     inkscape:connector-curvature="0" />
  <path
     style="opacity:1;fill:#000000;fill-opacity:0;fill-rule:nonzero;stroke:none;stroke-width:0.32823852;stroke-linecap:round;stroke-linejoin:round;stroke-miterlimit:4;stroke-dasharray:none;stroke-opacity:0;paint-order:fill markers stroke"
     d="m 43.993453,43.007888 c 1.050007,-0.100228 1.967024,-0.419241 2.825854,-0.983053 0.58728,-0.385545 0.97107,-0.748391 1.64973,-1.559744 0.27861,-0.333087 0.59866,-0.653239 0.71122,-0.711441 0.12883,-0.06662 0.49969,-0.127282 1.00101,-0.163734 0.438,-0.03184 0.80375,-0.05881 0.81277,-0.05991 0.009,-0.0011 0.0164,-2.14377 0.0164,-4.761471 0,-3.763668 -0.0172,-4.759512 -0.0821,-4.75971 -2.18609,-0.0067 -8.226809,-0.237722 -11.209344,-0.42875 -3.365656,-0.215571 -9.913419,-0.771728 -11.63606,-0.988361 l -0.311826,-0.03921 v 0.826754 0.826758 h -1.728939 -1.728954 l -0.04527,-10.38875 C 24.212875,7.169153 24.132039,2.9674158 23.923791,1.9261697 23.891209,1.7632284 23.820158,1.6889653 23.590518,1.5777982 c -0.491023,-0.237699 -1.009957,-0.059477 -1.1357,0.3900416 -0.03684,0.1316882 -0.09631,1.169988 -0.132165,2.3073335 -0.06788,2.1530552 -0.195475,18.8462847 -0.196566,25.7152027 l -6.85e-4,3.952991 0.202346,0.230459 c 0.333592,0.37994 0.983646,0.481655 1.378342,0.21567 0.121825,-0.0821 0.291374,-0.251962 0.376773,-0.377475 0.0854,-0.125513 0.196882,-0.224105 0.247741,-0.219087 0.05089,0.005 0.0925,-0.03192 0.0925,-0.08206 0,-0.07551 0.298915,-0.09118 1.739662,-0.09118 1.502604,0 1.739665,0.01343 1.739665,0.09847 0,0.05416 0.04431,0.09847 0.09847,0.09847 0.06669,0 0.09847,0.06674 0.09847,0.206813 0,0.554887 0.144417,3.505223 0.196093,4.006076 0.03548,0.343828 0.112717,0.675218 0.194956,0.836418 0.415613,0.81467 3.76563,2.898343 5.636072,3.505565 0.825593,0.268025 1.699402,0.45804 2.638379,0.573741 0.747391,0.09209 6.406265,0.141127 7.228555,0.06264 z"
     id="path5812-6"
     inkscape:connector-curvature="0" />
  <path
     style="opacity:1;fill:#000000;fill-opacity:1;fill-rule:nonzero;stroke:none;stroke-width:0.32823852;stroke-linecap:round;stroke-linejoin:round;stroke-miterlimit:4;stroke-dasharray:none;stroke-opacity:0;paint-order:fill markers stroke"
     d="m 43.993453,43.007888 c 1.050007,-0.100228 1.967024,-0.419241 2.825854,-0.983053 0.58728,-0.385545 0.97107,-0.748391 1.64973,-1.559744 0.27861,-0.333087 0.59866,-0.653239 0.71122,-0.711441 0.12883,-0.06662 0.49969,-0.127282 1.00101,-0.163734 0.438,-0.03184 0.80375,-0.05881 0.81277,-0.05991 0.009,-0.0011 0.0164,-2.14377 0.0164,-4.761471 0,-3.763668 -0.0172,-4.759512 -0.0821,-4.75971 -2.18609,-0.0067 -8.226809,-0.237722 -11.209344,-0.42875 -3.365656,-0.215571 -9.913419,-0.771728 -11.63606,-0.988361 l -0.311826,-0.03921 v 0.826754 0.826758 h -1.728939 -1.728954 l -0.04527,-10.38875 C 24.212875,7.169153 24.132039,2.9674158 23.923791,1.9261697 23.891209,1.7632284 23.820158,1.6889653 23.590518,1.5777982 c -0.491023,-0.237699 -1.009957,-0.059477 -1.1357,0.3900416 -0.03684,0.1316882 -0.09631,1.169988 -0.132165,2.3073335 -0.06788,2.1530552 -0.195475,18.8462847 -0.196566,25.7152027 l -6.85e-4,3.952991 0.202346,0.230459 c 0.333592,0.37994 0.983646,0.481655 1.378342,0.21567 0.121825,-0.0821 0.291374,-0.251962 0.376773,-0.377475 0.0854,-0.125513 0.196882,-0.224105 0.247741,-0.219087 0.05089,0.005 0.0925,-0.03192 0.0925,-0.08206 0,-0.07551 0.298915,-0.09118 1.739662,-0.09118 1.502604,0 1.739665,0.01343 1.739665,0.09847 0,0.05416 0.04431,0.09847 0.09847,0.09847 0.06669,0 0.09847,0.06674 0.09847,0.206813 0,0.554887 0.144417,3.505223 0.196093,4.006076 0.03548,0.343828 0.112717,0.675218 0.194956,0.836418 0.415613,0.81467 3.76563,2.898343 5.636072,3.505565 0.825593,0.268025 1.699402,0.45804 2.638379,0.573741 0.747391,0.09209 6.406265,0.141127 7.228555,0.06264 z"
     id="path5814-6"
     inkscape:connector-curvature="0" />
  <path
     style="opacity:1;fill:#000000;fill-opacity:1;fill-rule:nonzero;stroke:none;stroke-width:0.32823852;stroke-linecap:round;stroke-linejoin:round;stroke-miterlimit:4;stroke-dasharray:none;stroke-opacity:0;paint-order:fill markers stroke"
     d="m 51.010447,26.43353 v -1.999999 l -2.4782,-0.01864 -2.4782,-0.01864 -0.32824,-0.23847 c -0.788544,-0.572901 -1.700722,-0.893049 -2.7976,-0.981882 -0.916149,-0.07419 -2.160119,0.0068 -2.651156,0.172712 -0.377619,0.127557 -1.125968,0.556667 -1.377771,0.790029 -0.09444,0.08753 -0.199736,0.159141 -0.233981,0.159141 -0.03423,0 -0.06226,0.02218 -0.06226,0.04923 4e-6,0.02709 -2.230376,0.03893 -4.956402,0.02633 -2.726026,-0.01259 -4.95641,-0.0089 -4.95641,0.0083 0,0.01716 -0.177543,0.615524 -0.394534,1.329742 -0.216996,0.714214 -0.38583,1.30728 -0.375185,1.317925 0.05455,0.05455 6.281535,0.622318 9.238274,0.842333 4.396742,0.327175 9.597225,0.561762 12.456655,0.56191 l 1.39501,7.2e-5 z"
     id="path5816-3"
     inkscape:connector-curvature="0" />
  <text
     xml:space="preserve"
     style="font-style:normal;font-variant:normal;font-weight:normal;font-stretch:normal;font-size:14.02913761px;line-height:1.25;font-family:MagistralC;-inkscape-font-specification:MagistralC;letter-spacing:0px;word-spacing:0px;fill:#000000;fill-opacity:1;stroke:none;stroke-width:0.35072842"
     x="-1.92"
     y="40.48481"
     id="text5967"><tspan
       sodipodi:role="line"
       id="tspan5965"
       x="-1.92"
       y="40.48481"
       style="font-size:32px;stroke-width:0.35072842">F</tspan><tspan
       sodipodi:role="line"
       x="-1.92"
       y="64.167313"
       style="font-size:32px;stroke-width:0.35072842"
       id="tspan871" /></text>
  <text
     xml:space="preserve"
     style="font-style:normal;font-variant:normal;font-weight:normal;font-stretch:normal;font-size:7.48220682px;line-height:1.25;font-family:MagistralC;-inkscape-font-specification:MagistralC;letter-spacing:0px;word-spacing:0px;fill:#000000;fill-opacity:1;stroke:none;stroke-width:0.35072842"
     x="44.054821"
     y="37.323551"
     id="text5979"><tspan
       sodipodi:role="line"
       id="tspan5977"
       x="44.054821"
       y="37.323551"
       style="fill:#ffffff;stroke-width:0.35072842">info</tspan></text>
  <text
     xml:space="preserve"
     style="font-style:normal;font-variant:normal;font-weight:normal;font-stretch:normal;font-size:32px;line-height:1.25;font-family:MagistralC;-inkscape-font-specification:MagistralC;letter-spacing:0px;word-spacing:0px;fill:#000000;fill-opacity:1;stroke:none"
     x="42.937645"
     y="22.4"
     id="text875"><tspan
       sodipodi:role="line"
       id="tspan873"
       x="42.937645"
       y="22.4">P</tspan></text>
  <text
     xml:space="preserve"
     style="font-style:normal;font-variant:normal;font-weight:normal;font-stretch:normal;font-size:32px;line-height:1.25;font-family:MagistralC;-inkscape-font-specification:MagistralC;letter-spacing:0px;word-spacing:0px;fill:#000000;fill-opacity:1;stroke:none"
     x="83.437645"
     y="40.135292"
     id="text879"><tspan
       sodipodi:role="line"
       id="tspan877"
       x="83.437645"
       y="40.135292">V</tspan></text>
</svg>
