<?xml version="1.0" encoding="UTF-8" standalone="no"?>
<svg
   xmlns:dc="http://purl.org/dc/elements/1.1/"
   xmlns:cc="http://creativecommons.org/ns#"
   xmlns:rdf="http://www.w3.org/1999/02/22-rdf-syntax-ns#"
   xmlns:svg="http://www.w3.org/2000/svg"
   xmlns="http://www.w3.org/2000/svg"
   xmlns:sodipodi="http://sodipodi.sourceforge.net/DTD/sodipodi-0.dtd"
   xmlns:inkscape="http://www.inkscape.org/namespaces/inkscape"
   viewBox="0 0 101 98"
   height="98"
   width="101"
   id="svg1430"
   version="1.1"
   sodipodi:docname="plane.svg"
   inkscape:version="0.92.2 (5c3e80d, 2017-08-06)">
  <sodipodi:namedview
     pagecolor="#ffffff"
     bordercolor="#666666"
     borderopacity="1"
     objecttolerance="10"
     gridtolerance="10"
     guidetolerance="10"
     inkscape:pageopacity="0"
     inkscape:pageshadow="2"
     inkscape:window-width="1920"
     inkscape:window-height="1017"
     id="namedview8"
     showgrid="false"
     inkscape:zoom="2.4081633"
     inkscape:cx="-24.245762"
     inkscape:cy="49.000001"
     inkscape:window-x="-8"
     inkscape:window-y="-8"
     inkscape:window-maximized="1"
     inkscape:current-layer="svg1430" />
  <metadata
     id="metadata1436">
    <rdf:RDF>
      <cc:Work
         rdf:about="">
        <dc:format>image/svg+xml</dc:format>
        <dc:type
           rdf:resource="http://purl.org/dc/dcmitype/StillImage" />
        <dc:title />
      </cc:Work>
    </rdf:RDF>
  </metadata>
  <defs
     id="defs1434">
    <filter
       height="1.0817388"
       y="-0.0408694"
       width="1.0724241"
       x="-0.036212008"
       id="filter2161"
       style="color-interpolation-filters:sRGB">
      <feGaussianBlur
         id="feGaussianBlur2163"
         stdDeviation="7.3416571" />
    </filter>
    <filter
       inkscape:collect="always"
       style="color-interpolation-filters:sRGB"
       id="filter859"
       x="-0.013579503"
       width="1.027159"
       y="-0.015326025"
       height="1.030652">
      <feGaussianBlur
         inkscape:collect="always"
         stdDeviation="2.7531216"
         id="feGaussianBlur861" />
    </filter>
  </defs>
  <path
     transform="matrix(0.1916376,0,0,0.1916376,-11.524446,-17.69709)"
     id="path1444"
     d="m 189.22088,220.82292 c 0.35323,-0.73589 1.05911,-2.20647 0.67366,-3.73832 -0.38545,-1.53184 -1.85046,-3.11405 -3.39464,-5.48918 -1.54417,-2.37514 -3.16186,-5.53699 -4.15446,-8.03706 -0.99261,-2.50008 -1.3603,-4.33854 -1.49257,-6.29413 -0.13227,-1.95559 -0.0293,-4.02999 0.38987,-5.94139 0.41916,-1.9114 1.15482,-3.66229 2.27959,-5.1617 1.12476,-1.49941 2.64052,-2.75028 4.08861,-3.66899 1.4481,-0.91871 2.83145,-1.50737 4.35271,-1.86004 1.52126,-0.35267 3.18448,-0.47042 5.16897,-0.47039 1.9845,2e-5 4.2948,0.11774 6.66909,0.65439 2.37429,0.53665 4.81646,1.49292 6.831,2.27962 2.01454,0.7867 3.60311,1.40448 5.24985,2.09553 1.64674,0.69104 3.35319,1.456 4.81608,2.36021 1.46288,0.9042 2.68379,1.9486 3.36817,2.44839 0.68437,0.49979 0.83143,0.45567 46.58884,-9.22393 45.75742,-9.67959 138.59551,-29.30559 185.08827,-39.12417 46.49277,-9.81859 47.37538,-9.9852 48.55398,-10.12036 1.17861,-0.13517 2.65713,-0.23929 3.98764,-0.22885 1.33051,0.0104 2.51681,0.13531 4.28359,0.51986 1.76679,0.38456 4.11863,1.02976 7.10237,2.30852 2.98373,1.27876 6.60349,3.19266 11.73999,6.49915 5.13649,3.3065 11.79229,8.00716 15.94958,11.03333 4.15729,3.02617 5.86691,4.4192 7.19788,5.53181 1.33097,1.11261 2.30852,1.96536 3.35864,3.14024 1.05012,1.17487 2.17326,2.67239 3.06753,4.08655 0.89428,1.41417 1.55972,2.74505 2.24613,4.16987 0.68642,1.42482 1.39331,2.94256 2.00691,4.6377 0.61361,1.69513 1.13339,3.56634 1.45583,5.23026 0.32243,1.66392 0.44717,3.11921 0.49921,4.09677 0.0521,0.97756 0.0313,1.47639 -0.0411,1.76778 -0.0724,0.29139 -0.19689,0.37439 -29.46623,14.27969 -29.26935,13.90531 -86.61293,41.12444 -115.89547,55.00665 -29.28255,13.8822 -29.96884,14.17336 -31.07254,14.31919 -1.10369,0.14584 -2.61922,0.14584 -3.96118,2.5e-4 -1.34195,-0.14559 -2.50583,-0.43656 -4.753,-1.1544 -2.24717,-0.71784 -5.57271,-1.861 -8.14789,-2.84716 -2.57517,-0.98616 -4.41284,-1.82146 -6.09926,-2.47088 -1.68642,-0.64941 -3.30474,-1.13916 -5.01039,-1.5136 -1.70565,-0.37444 -3.53506,-0.64469 -5.33433,-0.74874 -1.79927,-0.10405 -3.56623,-0.0417 -5.33442,0.41583 -1.7682,0.45752 -3.53493,1.30971 -5.97968,2.54767 -2.44474,1.23797 -5.5622,2.85905 -8.2351,4.43985 -2.6729,1.5808 -4.89736,3.11921 -6.72251,4.57008 -1.82516,1.45087 -3.2703,2.83318 -4.49783,4.31026 -1.22754,1.47707 -2.24588,3.05654 -3.31736,4.73137 -1.07148,1.67482 -2.1937,3.44128 -2.73481,4.77271 -0.54111,1.33143 -0.49954,2.22513 -0.50992,3.25516 -0.0104,1.03003 -0.0727,2.19344 -0.24953,3.50427 -0.17682,1.31084 -0.46772,2.76533 -0.83174,4.0864 -0.36401,1.32107 -0.80041,2.50558 -0.99828,3.18182 -0.19786,0.67624 -0.15631,0.84246 0.17788,1.21841 0.33418,0.37596 0.95545,0.95581 1.2674,1.37123 0.31194,0.41542 0.31194,0.70659 0.97989,1.58328 0.66795,0.87669 1.99405,2.34784 2.88831,3.37727 0.89427,1.02944 1.35179,1.61174 1.36247,2.37041 0.0107,0.75866 -0.42597,1.69434 -0.64462,2.40185 -0.21865,0.70752 -0.21865,1.18524 0.57333,2.1231 0.79198,0.93786 2.36928,2.32837 3.23292,3.00408 0.86364,0.67571 1.00923,0.63411 3.34068,-1.21248 2.33145,-1.8466 6.92324,-5.55777 10.57664,-8.44331 3.6534,-2.88554 6.43329,-4.99659 7.81574,-5.95337 1.38246,-0.95679 1.38246,-0.76954 0.65114,0.129 -0.73131,0.89853 -2.17934,2.49136 -4.24949,4.45753 -2.07014,1.96616 -4.75124,4.29393 -7.47621,6.54049 -2.72497,2.24656 -5.48991,4.40862 -6.87348,5.53161 -1.38357,1.12299 -1.38357,1.20617 -1.38357,1.42666 0,0.2205 0,0.56981 -0.65648,1.44525 -0.65648,0.87544 -1.963,2.26491 -2.75342,2.95176 -0.79042,0.68686 -1.06059,0.66607 -1.4289,0.82761 -0.36831,0.16154 -0.85851,0.52386 -3.57263,2.91552 -2.71411,2.39166 -7.66379,6.82142 -12.24447,10.50633 -4.58068,3.6849 -8.77107,6.60988 -10.93437,8.04538 -2.16331,1.4355 -2.28806,1.37312 -2.39243,1.00757 -0.10437,-0.36555 -0.1873,-1.02892 1.28785,-3.12726 1.47516,-2.09834 4.51549,-5.63845 8.7262,-9.57878 4.21072,-3.94033 9.59884,-8.28828 12.30202,-10.53448 2.70318,-2.24621 2.72398,-2.39182 2.5072,-2.85632 -0.21678,-0.46449 -0.67784,-1.26087 -1.23907,-1.91566 -0.56123,-0.6548 -1.22701,-1.17494 -1.66153,-1.38977 -0.43451,-0.21482 -0.60429,-0.13937 -1.13753,-0.10822 -0.53325,0.0312 -1.35953,0.011 -1.83846,-0.0619 -0.47892,-0.0729 -0.58278,-0.19756 -1.21666,-1.01848 -0.63387,-0.82092 -1.79944,-2.34032 -2.46499,-3.28673 -0.66555,-0.94641 -0.83195,-1.3208 -0.89422,-1.80947 -0.0623,-0.48866 -0.0206,-1.09252 -0.0623,-1.51832 -0.0416,-0.42579 -0.16663,-0.6758 -0.36381,-0.90414 -0.19719,-0.22835 -0.46799,-0.43665 -0.93569,-0.55109 -0.46771,-0.11443 -1.13286,-0.13522 -1.74677,0.13504 -0.61392,0.27025 -1.17463,0.83096 -1.79906,1.29941 -0.62443,0.46844 -1.30952,0.84213 -2.47575,0.93593 -1.16623,0.0938 -2.80636,-0.093 -4.02353,-0.44672 -1.21717,-0.35366 -2.00704,-0.87331 -3.12988,-1.03981 -1.12284,-0.1665 -2.5782,0.0206 -4.76298,0.78002 -2.18477,0.7594 -5.09416,2.08941 -8.65144,4.58565 -3.55727,2.49625 -7.75658,6.15504 -10.4968,8.60388 -2.74022,2.44883 -3.99814,3.6655 -5.69408,5.79836 -1.69594,2.13286 -3.81555,5.16682 -4.95947,6.82024 -1.14392,1.65342 -1.31023,1.92368 -1.58161,2.76903 -0.27138,0.84535 -0.64411,2.25343 -0.59214,4.23043 0.052,1.977 0.5299,4.51215 1.27873,6.86275 0.74883,2.3506 1.76757,4.51284 3.03636,7.09202 1.26879,2.57918 2.78668,5.57339 3.76418,7.6843 0.9775,2.11091 1.41418,3.33779 1.63266,4.85619 0.21847,1.51841 0.21847,3.32693 -0.0101,4.6893 -0.22859,1.36238 -0.68588,2.27695 -20.73953,33.23204 -20.05364,30.95508 -59.5997,91.79037 -79.51311,122.44552 -19.91341,30.65515 -20.14218,31.0503 -20.6318,31.49839 -0.48962,0.44809 -1.23607,0.94573 -2.07912,1.2373 -0.84305,0.29156 -1.77748,0.37462 -3.22408,0.38504 -1.44659,0.0104 -3.39928,-0.0519 -5.95827,-0.49916 -2.55898,-0.44727 -5.71859,-1.27875 -8.30815,-2.07951 -2.58955,-0.80077 -4.60645,-1.57011 -6.79615,-2.78357 -2.18971,-1.21346 -4.56974,-2.88366 -7.024,-4.86994 -2.45426,-1.98629 -4.99131,-4.29459 -9.61885,-9.87883 -4.62754,-5.58425 -11.344924,-14.44371 -15.254843,-20.02789 -3.909919,-5.58419 -5.012194,-7.89272 -6.040238,-10.29116 -1.028045,-2.39843 -1.987559,-4.90151 -2.569799,-7.26194 -0.58224,-2.36043 -0.790258,-4.58622 -0.56145,-7.18541 0.228809,-2.59919 0.894589,-5.5744 2.433224,-10.08624 1.538635,-4.51184 3.952062,-10.56621 21.710906,-55.13229 17.75885,-44.56609 50.87727,-127.67939 67.43294,-169.22715 16.55567,-41.54777 16.55567,-41.54774 16.9089,-42.28364 z"
     style="fill:#b3aeae;fill-opacity:1;stroke:#b3aeae;stroke-width:1px;stroke-linecap:butt;stroke-linejoin:miter;stroke-opacity:1;filter:url(#filter859)" />
</svg>
