<?xml version="1.0" encoding="UTF-8" standalone="no"?>
<!-- Generator: Adobe Illustrator 19.0.0, SVG Export Plug-In . SVG Version: 6.00 Build 0)  -->

<svg
   xmlns:dc="http://purl.org/dc/elements/1.1/"
   xmlns:cc="http://creativecommons.org/ns#"
   xmlns:rdf="http://www.w3.org/1999/02/22-rdf-syntax-ns#"
   xmlns:svg="http://www.w3.org/2000/svg"
   xmlns="http://www.w3.org/2000/svg"
   xmlns:sodipodi="http://sodipodi.sourceforge.net/DTD/sodipodi-0.dtd"
   xmlns:inkscape="http://www.inkscape.org/namespaces/inkscape"
   version="1.1"
   id="Layer_1"
   x="0px"
   y="0px"
   viewBox="0 0 455.00055 400.71051"
   xml:space="preserve"
   sodipodi:docname="prop.svg"
   width="455.00055"
   height="400.71051"
   inkscape:version="0.92.2 (5c3e80d, 2017-08-06)"><metadata
     id="metadata47"><rdf:RDF><cc:Work
         rdf:about=""><dc:format>image/svg+xml</dc:format><dc:type
           rdf:resource="http://purl.org/dc/dcmitype/StillImage" /><dc:title></dc:title></cc:Work></rdf:RDF></metadata><defs
     id="defs45" /><sodipodi:namedview
     pagecolor="#ffffff"
     bordercolor="#666666"
     borderopacity="1"
     objecttolerance="10"
     gridtolerance="10"
     guidetolerance="10"
     inkscape:pageopacity="0"
     inkscape:pageshadow="2"
     inkscape:window-width="1920"
     inkscape:window-height="1017"
     id="namedview43"
     showgrid="false"
     fit-margin-top="0"
     fit-margin-left="0"
     fit-margin-right="0"
     fit-margin-bottom="0"
     inkscape:zoom="0.51868132"
     inkscape:cx="44.538555"
     inkscape:cy="75.875491"
     inkscape:window-x="-8"
     inkscape:window-y="-8"
     inkscape:window-maximized="1"
     inkscape:current-layer="Layer_1" /><g
     id="g4557"
     transform="translate(5.5630808e-4,-27.145)"><circle
       style="fill:#b3aeae;fill-opacity:1"
       cx="227.5"
       cy="285.98199"
       r="44.537998"
       id="circle2" /><path
       style="fill:#b3aeae;fill-opacity:1"
       d="m 227.5,211.445 c 9.11,0 17.84,1.65 25.917,4.655 5.783,-26.133 9.468,-58.797 9.468,-89.663 0,-41.037 -5.271,-68.672 -12.779,-84.851 -3.956,-8.525 -12.588,-14.441 -22.605,-14.441 -10.017,0 -18.649,5.916 -22.605,14.441 -7.508,16.179 -12.779,43.813 -12.779,84.851 0,30.866 3.685,63.531 9.468,89.663 8.075,-3.006 16.805,-4.655 25.915,-4.655 z"
       id="path4"
       inkscape:connector-curvature="0" /><path
       style="fill:#b3aeae;fill-opacity:1"
       d="m 154.03,298.477 c -25.525,8.058 -55.659,21.2 -82.393,36.635 -35.539,20.519 -56.836,38.9 -67.094,53.492 -5.405,7.689 -6.213,18.122 -1.204,26.797 5.009,8.675 14.447,13.192 23.809,12.356 17.766,-1.587 44.333,-10.84 79.872,-31.358 26.742,-15.439 53.199,-34.972 72.941,-53.053 -13.436,-11.155 -22.89,-26.934 -25.931,-44.869 z"
       id="path6"
       inkscape:connector-curvature="0" /><path
       style="fill:#b3aeae;fill-opacity:1"
       d="M 450.457,388.604 C 440.2,374.012 418.903,355.63 383.363,335.112 356.629,319.677 326.494,306.535 300.97,298.477 c -3.041,17.935 -12.495,33.715 -25.932,44.869 19.742,18.081 46.199,37.614 72.941,53.053 35.539,20.519 62.107,29.771 79.872,31.358 9.362,0.836 18.8,-3.681 23.809,-12.356 5.009,-8.675 4.202,-19.108 -1.203,-26.797 z"
       id="path8"
       inkscape:connector-curvature="0" /></g><g
     id="g12"
     transform="translate(5.5630808e-4,-27.145)" /><g
     id="g14"
     transform="translate(5.5630808e-4,-27.145)" /><g
     id="g16"
     transform="translate(5.5630808e-4,-27.145)" /><g
     id="g18"
     transform="translate(5.5630808e-4,-27.145)" /><g
     id="g20"
     transform="translate(5.5630808e-4,-27.145)" /><g
     id="g22"
     transform="translate(5.5630808e-4,-27.145)" /><g
     id="g24"
     transform="translate(5.5630808e-4,-27.145)" /><g
     id="g26"
     transform="translate(5.5630808e-4,-27.145)" /><g
     id="g28"
     transform="translate(5.5630808e-4,-27.145)" /><g
     id="g30"
     transform="translate(5.5630808e-4,-27.145)" /><g
     id="g32"
     transform="translate(5.5630808e-4,-27.145)" /><g
     id="g34"
     transform="translate(5.5630808e-4,-27.145)" /><g
     id="g36"
     transform="translate(5.5630808e-4,-27.145)" /><g
     id="g38"
     transform="translate(5.5630808e-4,-27.145)" /><g
     id="g40"
     transform="translate(5.5630808e-4,-27.145)" /></svg>