<?xml version="1.0" encoding="UTF-8" standalone="no"?>
<svg
   xmlns:dc="http://purl.org/dc/elements/1.1/"
   xmlns:cc="http://creativecommons.org/ns#"
   xmlns:rdf="http://www.w3.org/1999/02/22-rdf-syntax-ns#"
   xmlns:svg="http://www.w3.org/2000/svg"
   xmlns="http://www.w3.org/2000/svg"
   xmlns:sodipodi="http://sodipodi.sourceforge.net/DTD/sodipodi-0.dtd"
   xmlns:inkscape="http://www.inkscape.org/namespaces/inkscape"
   version="1.1"
   id="svg815"
   width="101"
   height="101"
   viewBox="0 0 101 101"
   sodipodi:docname="quad.svg"
   inkscape:version="0.92.2 (5c3e80d, 2017-08-06)">
  <sodipodi:namedview
     pagecolor="#ffffff"
     bordercolor="#666666"
     borderopacity="1"
     objecttolerance="10"
     gridtolerance="10"
     guidetolerance="10"
     inkscape:pageopacity="0"
     inkscape:pageshadow="2"
     inkscape:window-width="1920"
     inkscape:window-height="1017"
     id="namedview8"
     showgrid="false"
     inkscape:zoom="2.3366337"
     inkscape:cx="20.786487"
     inkscape:cy="50.500002"
     inkscape:window-x="-8"
     inkscape:window-y="-8"
     inkscape:window-maximized="1"
     inkscape:current-layer="svg815" />
  <metadata
     id="metadata821">
    <rdf:RDF>
      <cc:Work
         rdf:about="">
        <dc:format>image/svg+xml</dc:format>
        <dc:type
           rdf:resource="http://purl.org/dc/dcmitype/StillImage" />
        <dc:title />
      </cc:Work>
    </rdf:RDF>
  </metadata>
  <defs
     id="defs1434">
    <filter
       height="1.0817388"
       y="-0.0408694"
       width="1.0724241"
       x="-0.036212008"
       id="filter2161"
       style="color-interpolation-filters:sRGB">
      <feGaussianBlur
         id="feGaussianBlur2163"
         stdDeviation="7.3416571" />
    </filter>
    <filter
       inkscape:collect="always"
       style="color-interpolation-filters:sRGB"
       id="filter843"
       x="-0.01201828"
       width="1.0240366"
       y="-0.011981775"
       height="1.0239636">
      <feGaussianBlur
         inkscape:collect="always"
         stdDeviation="0.51768777"
         id="feGaussianBlur845" />
    </filter>
  </defs>
  <path
     style="opacity:1;fill:#b3aeae;stroke:#b3aeae;stroke-opacity:1;filter:url(#filter843);fill-opacity:1"
     d="m 68.5,190.58529 c -6.626457,-3.38102 -9.765421,-8.10659 -10.300741,-15.50732 -0.66296,-9.16532 3.968677,-16.32814 12.345871,-19.09286 4.432237,-1.46277 7.847927,-0.93901 8.268561,1.26791 0.340432,1.78613 -0.179687,2.11115 -5.112545,3.19477 -4.662445,1.02422 -9.74514,6.46132 -10.365785,11.08857 -1.498835,11.17466 9.745059,19.09325 19.758521,13.91509 3.119148,-1.61297 6.895921,-6.81673 6.90238,-9.51032 0.0021,-0.85738 0.678738,-2.43238 1.503738,-3.5 1.433631,-1.85524 1.56135,-1.86211 2.886569,-0.15513 3.085652,3.97455 -2.404787,15.07117 -9.007161,18.2042 -6.264879,2.97288 -11.184906,3.0006 -16.879408,0.0951 z m 67,0.97527 c -4.92744,-1.79504 -10.16614,-7.60697 -11.57595,-12.8426 C 122.66288,174.03433 123.24962,172 125.86163,172 c 2.03381,0 3.13837,1.82995 3.13837,5.19943 0,1.11973 1.74706,3.78292 3.88235,5.91822 3.4482,3.4482 4.42669,3.88193 8.75,3.87861 6.0339,-0.005 10.44584,-2.53391 12.69769,-7.27933 2.02613,-4.26975 2.09625,-6.774 0.30798,-10.99905 -1.82548,-4.31295 -4.60168,-6.62289 -9.80686,-8.15979 -3.12898,-0.92388 -4.33116,-1.80334 -4.33116,-3.16847 0,-1.56581 0.71931,-1.87549 4.1976,-1.80718 9.48562,0.18629 16.96011,9.47289 16.08808,19.98846 C 159.7833,187.65823 146.9919,195.747 135.5,191.56056 Z M 71.454545,179.54545 c -2.415501,-2.4155 -3.168299,-6.52186 -1.833364,-10.00065 0.749731,-1.95376 5.496848,-4.5448 8.32667,-4.5448 2.374406,0 13.347451,-13.29651 16.986844,-20.58369 2.21911,-4.44334 2.238174,-4.70655 0.603458,-8.3317 -0.928425,-2.05888 -4.486093,-7.08268 -7.905929,-11.16401 -5.556244,-6.63098 -6.670408,-7.4816 -10.47055,-7.99387 -4.989647,-0.67262 -7.862251,-3.17961 -8.754356,-7.64014 -0.53908,-2.6954 -0.156753,-3.691 2.398772,-6.24653 C 72.665467,101.18069 74.876843,100 76.5,100 c 3.673455,0 8.5,4.98908 8.5,8.78624 0,3.25202 5.511477,9.06215 14.335064,15.11184 9.196286,6.30523 15.152026,5.15309 27.955736,-5.40801 6.16833,-5.08792 6.7092,-5.84582 6.7092,-9.40128 0,-5.64099 2.71777,-8.54334 8,-8.54334 5.06517,0 8,2.91816 8,7.95455 0,4.69233 -2.696,7.51541 -7.83541,8.20475 -3.81357,0.51151 -5.00137,1.37628 -10.22204,7.44207 -7.59277,8.82189 -10.31174,14.07171 -9.5077,18.3576 0.66998,3.57131 8.69221,15.49209 13.20058,19.61565 1.62177,1.48334 4.59998,2.88017 6.86457,3.21958 4.86151,0.72865 7.5,3.6544 7.5,8.31659 0,4.46572 -3.71827,8.34376 -8,8.34376 -4.18896,0 -8,-3.88421 -8,-8.15359 0,-2.62016 -1.00716,-4.19006 -5.23391,-8.15835 -12.45136,-11.68995 -19.74045,-14.13398 -27.89137,-9.35197 C 98.468624,157.7477 93.9125,161.21056 90.75,164.03132 85.578898,168.64363 85,169.55921 85,173.12544 85,178.14131 81.521572,182 77,182 c -1.948373,0 -3.998217,-0.90731 -5.545455,-2.45455 z M 68.5,125.36016 C 61.667597,121.69235 58,115.80588 58,108.50772 c 0,-6.05279 1.911438,-10.344766 6.337915,-14.231264 6.539803,-5.742023 13.932414,-6.400388 21.961493,-1.955828 6.377451,3.530288 11.049213,13.578022 8.087161,17.393372 -1.325219,1.70698 -1.452938,1.70011 -2.886569,-0.15513 -0.825,-1.06762 -1.501682,-2.64262 -1.503738,-3.5 -0.0065,-2.69359 -3.783232,-7.897348 -6.90238,-9.510321 -11.97695,-6.193522 -25.021499,6.857671 -18.137885,18.147121 2.324246,3.81187 5.913867,6.32579 10.319051,7.22675 2.311331,0.47272 3.224952,1.21455 3.224952,2.61858 0,2.5925 -5.810044,3.06843 -10,0.81916 z m 71.88,0.18773 c -0.83965,-2.18811 0.23856,-3.25375 4.00751,-3.96081 C 150.63649,120.41477 156,114.10841 156,107.93325 156,100.94098 149.3459,95 141.51432,95 c -4.1839,0 -5.21204,0.462421 -8.63197,3.882353 C 130.50584,101.25886 129,103.70587 129,105.19122 c 0,1.33459 -0.6475,3.30003 -1.43888,4.36765 -1.32278,1.7845 -1.57066,1.8114 -3.07201,0.33341 -3.71569,-3.6579 1.87433,-14.915112 9.14467,-18.415575 11.72441,-5.644967 25.92506,1.876645 27.12526,14.367345 0.53447,5.56236 -0.87377,10.7608 -3.98737,14.7191 -3.93175,4.9984 -15.08491,8.3901 -16.39167,4.98474 z"
     id="path837"
     transform="matrix(0.89947265,-0.00724755,0.00724755,0.89947265,-48.477302,-75.079452)" />
</svg>
