<?xml version="1.0" encoding="UTF-8" standalone="no"?>
<!-- Created with Inkscape (http://www.inkscape.org/) -->

<svg
   xmlns:dc="http://purl.org/dc/elements/1.1/"
   xmlns:cc="http://creativecommons.org/ns#"
   xmlns:rdf="http://www.w3.org/1999/02/22-rdf-syntax-ns#"
   xmlns:svg="http://www.w3.org/2000/svg"
   xmlns="http://www.w3.org/2000/svg"
   xmlns:sodipodi="http://sodipodi.sourceforge.net/DTD/sodipodi-0.dtd"
   xmlns:inkscape="http://www.inkscape.org/namespaces/inkscape"
   version="1.1"
   id="svg1984"
   width="225"
   height="225"
   viewBox="0 0 225 225"
   sodipodi:docname="Без названия.svg"
   inkscape:version="0.92.2 (5c3e80d, 2017-08-06)">
  <metadata
     id="metadata1990">
    <rdf:RDF>
      <cc:Work
         rdf:about="">
        <dc:format>image/svg+xml</dc:format>
        <dc:type
           rdf:resource="http://purl.org/dc/dcmitype/StillImage" />
        <dc:title></dc:title>
      </cc:Work>
    </rdf:RDF>
  </metadata>
  <defs
     id="defs1988">
    <inkscape:path-effect
       effect="bspline"
       id="path-effect5745"
       is_visible="true"
       weight="33.333333"
       steps="2"
       helper_size="0"
       apply_no_weight="true"
       apply_with_weight="true"
       only_selected="false" />
    <inkscape:path-effect
       effect="bspline"
       id="path-effect5741"
       is_visible="true"
       weight="33.333333"
       steps="2"
       helper_size="0"
       apply_no_weight="true"
       apply_with_weight="true"
       only_selected="false" />
    <inkscape:path-effect
       effect="bspline"
       id="path-effect5737"
       is_visible="true"
       weight="33.333333"
       steps="2"
       helper_size="0"
       apply_no_weight="true"
       apply_with_weight="true"
       only_selected="false" />
    <inkscape:path-effect
       effect="bspline"
       id="path-effect5729"
       is_visible="true"
       weight="33.333333"
       steps="2"
       helper_size="0"
       apply_no_weight="true"
       apply_with_weight="true"
       only_selected="false" />
    <inkscape:path-effect
       effect="bspline"
       id="path-effect5745-3"
       is_visible="true"
       weight="33.333333"
       steps="2"
       helper_size="0"
       apply_no_weight="true"
       apply_with_weight="true"
       only_selected="false" />
  </defs>
  <sodipodi:namedview
     pagecolor="#ffffff"
     bordercolor="#666666"
     borderopacity="1"
     objecttolerance="10"
     gridtolerance="10"
     guidetolerance="10"
     inkscape:pageopacity="0"
     inkscape:pageshadow="2"
     inkscape:window-width="1920"
     inkscape:window-height="1017"
     id="namedview1986"
     showgrid="false"
     inkscape:zoom="3.7777778"
     inkscape:cx="118.66883"
     inkscape:cy="71.515453"
     inkscape:window-x="-8"
     inkscape:window-y="-8"
     inkscape:window-maximized="1"
     inkscape:current-layer="svg1984" />
  <path
     style="opacity:1;fill:#000000;fill-opacity:0;fill-rule:nonzero;stroke:none;stroke-width:0.93587661;stroke-linecap:round;stroke-linejoin:round;stroke-miterlimit:4;stroke-dasharray:none;stroke-opacity:0;paint-order:fill markers stroke"
     d="m 104.94077,123.83658 v -5.70241 l 7.06587,-0.0532 7.06586,-0.0532 0.93588,-0.67994 c 2.24831,-1.63346 4.84912,-2.54626 7.97655,-2.79954 2.61213,-0.21154 6.15895,0.0195 7.559,0.49244 1.07667,0.36368 3.21037,1.58717 3.92831,2.25253 0.26928,0.24956 0.56949,0.45375 0.66713,0.45375 0.0976,0 0.17752,0.0632 0.17751,0.14038 -1e-5,0.0772 6.35927,0.11099 14.13174,0.0751 7.77247,-0.0359 14.13176,-0.0253 14.13176,0.0236 0,0.0489 0.50621,1.75499 1.1249,3.79137 0.6187,2.03638 1.10008,3.72733 1.06973,3.75768 -0.15553,0.15553 -17.90997,1.77436 -26.34025,2.40167 -12.53603,0.93284 -27.3637,1.6017 -35.51652,1.60212 l -3.97747,2.1e-4 z"
     id="path5796"
     inkscape:connector-curvature="0" />
  <path
     style="opacity:1;fill:#000000;fill-opacity:0;fill-rule:nonzero;stroke:none;stroke-width:0.93587661;stroke-linecap:round;stroke-linejoin:round;stroke-miterlimit:4;stroke-dasharray:none;stroke-opacity:0;paint-order:fill markers stroke"
     d="m 104.94077,123.83658 v -5.70241 l 7.06587,-0.0532 7.06586,-0.0532 0.93588,-0.67994 c 2.24831,-1.63346 4.84912,-2.54626 7.97655,-2.79954 2.61213,-0.21154 6.15895,0.0195 7.559,0.49244 1.07667,0.36368 3.21037,1.58717 3.92831,2.25253 0.26928,0.24956 0.56949,0.45375 0.66713,0.45375 0.0976,0 0.17752,0.0632 0.17751,0.14038 -1e-5,0.0772 6.35927,0.11099 14.13174,0.0751 7.77247,-0.0359 14.13176,-0.0253 14.13176,0.0236 0,0.0489 0.50621,1.75499 1.1249,3.79137 0.6187,2.03638 1.10008,3.72733 1.06973,3.75768 -0.15553,0.15553 -17.90997,1.77436 -26.34025,2.40167 -12.53603,0.93284 -27.3637,1.6017 -35.51652,1.60212 l -3.97747,2.1e-4 z"
     id="path5798"
     inkscape:connector-curvature="0" />
  <path
     style="opacity:1;fill:#000000;fill-opacity:0;fill-rule:nonzero;stroke:none;stroke-width:0.93587661;stroke-linecap:round;stroke-linejoin:round;stroke-miterlimit:4;stroke-dasharray:none;stroke-opacity:0;paint-order:fill markers stroke"
     d="m 104.94077,123.83658 v -5.70241 l 7.06587,-0.0532 7.06586,-0.0532 0.93588,-0.67994 c 2.24831,-1.63346 4.84912,-2.54626 7.97655,-2.79954 2.61213,-0.21154 6.15895,0.0195 7.559,0.49244 1.07667,0.36368 3.21037,1.58717 3.92831,2.25253 0.26928,0.24956 0.56949,0.45375 0.66713,0.45375 0.0976,0 0.17752,0.0632 0.17751,0.14038 -1e-5,0.0772 6.35927,0.11099 14.13174,0.0751 7.77247,-0.0359 14.13176,-0.0253 14.13176,0.0236 0,0.0489 0.50621,1.75499 1.1249,3.79137 0.6187,2.03638 1.10008,3.72733 1.06973,3.75768 -0.15553,0.15553 -17.90997,1.77436 -26.34025,2.40167 -12.53603,0.93284 -27.3637,1.6017 -35.51652,1.60212 l -3.97747,2.1e-4 z"
     id="path5800"
     inkscape:connector-curvature="0" />
  <path
     style="opacity:1;fill:#000000;fill-opacity:0;fill-rule:nonzero;stroke:none;stroke-width:0.93587661;stroke-linecap:round;stroke-linejoin:round;stroke-miterlimit:4;stroke-dasharray:none;stroke-opacity:0;paint-order:fill markers stroke"
     d="m 124.94769,171.09354 c -2.99379,-0.28577 -5.60839,-1.19534 -8.05711,-2.80289 -1.67446,-1.09927 -2.7687,-2.13382 -4.7037,-4.44715 -0.7944,-0.9497 -1.70693,-1.86252 -2.02785,-2.02847 -0.36733,-0.18995 -1.42471,-0.36291 -2.85409,-0.46684 -1.24882,-0.0908 -2.29164,-0.16768 -2.31738,-0.17083 -0.0257,-0.003 -0.0468,-6.11233 -0.0468,-13.57595 0,-10.731 0.049,-13.57036 0.23397,-13.57092 6.23299,-0.019 23.45635,-0.6778 31.96018,-1.22246 9.59618,-0.61463 28.26522,-2.20035 33.17683,-2.81801 l 0.88908,-0.1118 v 2.35725 2.35726 h 4.92962 4.92961 l 0.12907,-29.6205 c 0.15713,-36.062413 0.38761,-48.042447 0.98137,-51.011248 0.0929,-0.464586 0.29548,-0.67632 0.95023,-0.993281 1.40001,-0.677732 2.8796,-0.169587 3.23812,1.112089 0.10503,0.375465 0.2746,3.335874 0.37683,6.578686 0.19353,6.138812 0.55734,53.734704 0.56045,73.319424 l 0.002,11.2708 -0.57693,0.65708 c -0.95114,1.08329 -2.80458,1.3733 -3.92994,0.61492 -0.34735,-0.23408 -0.83077,-0.71839 -1.07426,-1.07626 -0.24349,-0.35786 -0.56135,-0.63896 -0.70636,-0.62466 -0.14509,0.0143 -0.26374,-0.091 -0.26374,-0.23397 0,-0.2153 -0.85227,-0.25996 -4.96014,-0.25996 -4.28424,0 -4.96015,0.0383 -4.96015,0.28076 0,0.15442 -0.12634,0.28076 -0.28076,0.28076 -0.19015,0 -0.28076,0.1903 -0.28076,0.58967 0,1.5821 -0.41176,9.99412 -0.5591,11.42216 -0.10115,0.98032 -0.32138,1.92519 -0.55586,2.3848 -1.185,2.3228 -10.7366,8.26378 -16.06962,9.9951 -2.35394,0.76419 -4.84535,1.30597 -7.52257,1.63586 -2.13097,0.26258 -18.2656,0.40238 -20.61012,0.17858 z"
     id="path5802"
     inkscape:connector-curvature="0" />
  <path
     style="opacity:1;fill:#000000;fill-opacity:0;fill-rule:nonzero;stroke:none;stroke-width:0.93587661;stroke-linecap:round;stroke-linejoin:round;stroke-miterlimit:4;stroke-dasharray:none;stroke-opacity:0;paint-order:fill markers stroke"
     d="m 124.94769,171.09354 c -2.99379,-0.28577 -5.60839,-1.19534 -8.05711,-2.80289 -1.67446,-1.09927 -2.7687,-2.13382 -4.7037,-4.44715 -0.7944,-0.9497 -1.70693,-1.86252 -2.02785,-2.02847 -0.36733,-0.18995 -1.42471,-0.36291 -2.85409,-0.46684 -1.24882,-0.0908 -2.29164,-0.16768 -2.31738,-0.17083 -0.0257,-0.003 -0.0468,-6.11233 -0.0468,-13.57595 0,-10.731 0.049,-13.57036 0.23397,-13.57092 6.23299,-0.019 23.45635,-0.6778 31.96018,-1.22246 9.59618,-0.61463 28.26522,-2.20035 33.17683,-2.81801 l 0.88908,-0.1118 v 2.35725 2.35726 h 4.92962 4.92961 l 0.12907,-29.6205 c 0.15713,-36.062413 0.38761,-48.042447 0.98137,-51.011248 0.0929,-0.464586 0.29548,-0.67632 0.95023,-0.993281 1.40001,-0.677732 2.8796,-0.169587 3.23812,1.112089 0.10503,0.375465 0.2746,3.335874 0.37683,6.578686 0.19353,6.138812 0.55734,53.734704 0.56045,73.319424 l 0.002,11.2708 -0.57693,0.65708 c -0.95114,1.08329 -2.80458,1.3733 -3.92994,0.61492 -0.34735,-0.23408 -0.83077,-0.71839 -1.07426,-1.07626 -0.24349,-0.35786 -0.56135,-0.63896 -0.70636,-0.62466 -0.14509,0.0143 -0.26374,-0.091 -0.26374,-0.23397 0,-0.2153 -0.85227,-0.25996 -4.96014,-0.25996 -4.28424,0 -4.96015,0.0383 -4.96015,0.28076 0,0.15442 -0.12634,0.28076 -0.28076,0.28076 -0.19015,0 -0.28076,0.1903 -0.28076,0.58967 0,1.5821 -0.41176,9.99412 -0.5591,11.42216 -0.10115,0.98032 -0.32138,1.92519 -0.55586,2.3848 -1.185,2.3228 -10.7366,8.26378 -16.06962,9.9951 -2.35394,0.76419 -4.84535,1.30597 -7.52257,1.63586 -2.13097,0.26258 -18.2656,0.40238 -20.61012,0.17858 z"
     id="path5804"
     inkscape:connector-curvature="0" />
  <path
     style="opacity:1;fill:#000000;fill-opacity:0;fill-rule:nonzero;stroke:none;stroke-width:0.93587661;stroke-linecap:round;stroke-linejoin:round;stroke-miterlimit:4;stroke-dasharray:none;stroke-opacity:0;paint-order:fill markers stroke"
     d="m 124.94769,171.09354 c -2.99379,-0.28577 -5.60839,-1.19534 -8.05711,-2.80289 -1.67446,-1.09927 -2.7687,-2.13382 -4.7037,-4.44715 -0.7944,-0.9497 -1.70693,-1.86252 -2.02785,-2.02847 -0.36733,-0.18995 -1.42471,-0.36291 -2.85409,-0.46684 -1.24882,-0.0908 -2.29164,-0.16768 -2.31738,-0.17083 -0.0257,-0.003 -0.0468,-6.11233 -0.0468,-13.57595 0,-10.731 0.049,-13.57036 0.23397,-13.57092 6.23299,-0.019 23.45635,-0.6778 31.96018,-1.22246 9.59618,-0.61463 28.26522,-2.20035 33.17683,-2.81801 l 0.88908,-0.1118 v 2.35725 2.35726 h 4.92962 4.92961 l 0.12907,-29.6205 c 0.15713,-36.062413 0.38761,-48.042447 0.98137,-51.011248 0.0929,-0.464586 0.29548,-0.67632 0.95023,-0.993281 1.40001,-0.677732 2.8796,-0.169587 3.23812,1.112089 0.10503,0.375465 0.2746,3.335874 0.37683,6.578686 0.19353,6.138812 0.55734,53.734704 0.56045,73.319424 l 0.002,11.2708 -0.57693,0.65708 c -0.95114,1.08329 -2.80458,1.3733 -3.92994,0.61492 -0.34735,-0.23408 -0.83077,-0.71839 -1.07426,-1.07626 -0.24349,-0.35786 -0.56135,-0.63896 -0.70636,-0.62466 -0.14509,0.0143 -0.26374,-0.091 -0.26374,-0.23397 0,-0.2153 -0.85227,-0.25996 -4.96014,-0.25996 -4.28424,0 -4.96015,0.0383 -4.96015,0.28076 0,0.15442 -0.12634,0.28076 -0.28076,0.28076 -0.19015,0 -0.28076,0.1903 -0.28076,0.58967 0,1.5821 -0.41176,9.99412 -0.5591,11.42216 -0.10115,0.98032 -0.32138,1.92519 -0.55586,2.3848 -1.185,2.3228 -10.7366,8.26378 -16.06962,9.9951 -2.35394,0.76419 -4.84535,1.30597 -7.52257,1.63586 -2.13097,0.26258 -18.2656,0.40238 -20.61012,0.17858 z"
     id="path5806"
     inkscape:connector-curvature="0" />
  <path
     style="opacity:1;fill:#000000;fill-opacity:0;fill-rule:nonzero;stroke:none;stroke-width:0.93587661;stroke-linecap:round;stroke-linejoin:round;stroke-miterlimit:4;stroke-dasharray:none;stroke-opacity:0;paint-order:fill markers stroke"
     d="m 124.94769,171.09354 c -2.99379,-0.28577 -5.60839,-1.19534 -8.05711,-2.80289 -1.67446,-1.09927 -2.7687,-2.13382 -4.7037,-4.44715 -0.7944,-0.9497 -1.70693,-1.86252 -2.02785,-2.02847 -0.36733,-0.18995 -1.42471,-0.36291 -2.85409,-0.46684 -1.24882,-0.0908 -2.29164,-0.16768 -2.31738,-0.17083 -0.0257,-0.003 -0.0468,-6.11233 -0.0468,-13.57595 0,-10.731 0.049,-13.57036 0.23397,-13.57092 6.23299,-0.019 23.45635,-0.6778 31.96018,-1.22246 9.59618,-0.61463 28.26522,-2.20035 33.17683,-2.81801 l 0.88908,-0.1118 v 2.35725 2.35726 h 4.92962 4.92961 l 0.12907,-29.6205 c 0.15713,-36.062413 0.38761,-48.042447 0.98137,-51.011248 0.0929,-0.464586 0.29548,-0.67632 0.95023,-0.993281 1.40001,-0.677732 2.8796,-0.169587 3.23812,1.112089 0.10503,0.375465 0.2746,3.335874 0.37683,6.578686 0.19353,6.138812 0.55734,53.734704 0.56045,73.319424 l 0.002,11.2708 -0.57693,0.65708 c -0.95114,1.08329 -2.80458,1.3733 -3.92994,0.61492 -0.34735,-0.23408 -0.83077,-0.71839 -1.07426,-1.07626 -0.24349,-0.35786 -0.56135,-0.63896 -0.70636,-0.62466 -0.14509,0.0143 -0.26374,-0.091 -0.26374,-0.23397 0,-0.2153 -0.85227,-0.25996 -4.96014,-0.25996 -4.28424,0 -4.96015,0.0383 -4.96015,0.28076 0,0.15442 -0.12634,0.28076 -0.28076,0.28076 -0.19015,0 -0.28076,0.1903 -0.28076,0.58967 0,1.5821 -0.41176,9.99412 -0.5591,11.42216 -0.10115,0.98032 -0.32138,1.92519 -0.55586,2.3848 -1.185,2.3228 -10.7366,8.26378 -16.06962,9.9951 -2.35394,0.76419 -4.84535,1.30597 -7.52257,1.63586 -2.13097,0.26258 -18.2656,0.40238 -20.61012,0.17858 z"
     id="path5808"
     inkscape:connector-curvature="0" />
  <path
     style="opacity:1;fill:#000000;fill-opacity:0;fill-rule:nonzero;stroke:none;stroke-width:0.93587661;stroke-linecap:round;stroke-linejoin:round;stroke-miterlimit:4;stroke-dasharray:none;stroke-opacity:0;paint-order:fill markers stroke"
     d="m 124.94769,171.09354 c -2.99379,-0.28577 -5.60839,-1.19534 -8.05711,-2.80289 -1.67446,-1.09927 -2.7687,-2.13382 -4.7037,-4.44715 -0.7944,-0.9497 -1.70693,-1.86252 -2.02785,-2.02847 -0.36733,-0.18995 -1.42471,-0.36291 -2.85409,-0.46684 -1.24882,-0.0908 -2.29164,-0.16768 -2.31738,-0.17083 -0.0257,-0.003 -0.0468,-6.11233 -0.0468,-13.57595 0,-10.731 0.049,-13.57036 0.23397,-13.57092 6.23299,-0.019 23.45635,-0.6778 31.96018,-1.22246 9.59618,-0.61463 28.26522,-2.20035 33.17683,-2.81801 l 0.88908,-0.1118 v 2.35725 2.35726 h 4.92962 4.92961 l 0.12907,-29.6205 c 0.15713,-36.062413 0.38761,-48.042447 0.98137,-51.011248 0.0929,-0.464586 0.29548,-0.67632 0.95023,-0.993281 1.40001,-0.677732 2.8796,-0.169587 3.23812,1.112089 0.10503,0.375465 0.2746,3.335874 0.37683,6.578686 0.19353,6.138812 0.55734,53.734704 0.56045,73.319424 l 0.002,11.2708 -0.57693,0.65708 c -0.95114,1.08329 -2.80458,1.3733 -3.92994,0.61492 -0.34735,-0.23408 -0.83077,-0.71839 -1.07426,-1.07626 -0.24349,-0.35786 -0.56135,-0.63896 -0.70636,-0.62466 -0.14509,0.0143 -0.26374,-0.091 -0.26374,-0.23397 0,-0.2153 -0.85227,-0.25996 -4.96014,-0.25996 -4.28424,0 -4.96015,0.0383 -4.96015,0.28076 0,0.15442 -0.12634,0.28076 -0.28076,0.28076 -0.19015,0 -0.28076,0.1903 -0.28076,0.58967 0,1.5821 -0.41176,9.99412 -0.5591,11.42216 -0.10115,0.98032 -0.32138,1.92519 -0.55586,2.3848 -1.185,2.3228 -10.7366,8.26378 -16.06962,9.9951 -2.35394,0.76419 -4.84535,1.30597 -7.52257,1.63586 -2.13097,0.26258 -18.2656,0.40238 -20.61012,0.17858 z"
     id="path5810"
     inkscape:connector-curvature="0" />
  <path
     style="opacity:1;fill:#000000;fill-opacity:0;fill-rule:nonzero;stroke:none;stroke-width:0.93587661;stroke-linecap:round;stroke-linejoin:round;stroke-miterlimit:4;stroke-dasharray:none;stroke-opacity:0;paint-order:fill markers stroke"
     d="m 124.94769,171.09354 c -2.99379,-0.28577 -5.60839,-1.19534 -8.05711,-2.80289 -1.67446,-1.09927 -2.7687,-2.13382 -4.7037,-4.44715 -0.7944,-0.9497 -1.70693,-1.86252 -2.02785,-2.02847 -0.36733,-0.18995 -1.42471,-0.36291 -2.85409,-0.46684 -1.24882,-0.0908 -2.29164,-0.16768 -2.31738,-0.17083 -0.0257,-0.003 -0.0468,-6.11233 -0.0468,-13.57595 0,-10.731 0.049,-13.57036 0.23397,-13.57092 6.23299,-0.019 23.45635,-0.6778 31.96018,-1.22246 9.59618,-0.61463 28.26522,-2.20035 33.17683,-2.81801 l 0.88908,-0.1118 v 2.35725 2.35726 h 4.92962 4.92961 l 0.12907,-29.6205 c 0.15713,-36.062413 0.38761,-48.042447 0.98137,-51.011248 0.0929,-0.464586 0.29548,-0.67632 0.95023,-0.993281 1.40001,-0.677732 2.8796,-0.169587 3.23812,1.112089 0.10503,0.375465 0.2746,3.335874 0.37683,6.578686 0.19353,6.138812 0.55734,53.734704 0.56045,73.319424 l 0.002,11.2708 -0.57693,0.65708 c -0.95114,1.08329 -2.80458,1.3733 -3.92994,0.61492 -0.34735,-0.23408 -0.83077,-0.71839 -1.07426,-1.07626 -0.24349,-0.35786 -0.56135,-0.63896 -0.70636,-0.62466 -0.14509,0.0143 -0.26374,-0.091 -0.26374,-0.23397 0,-0.2153 -0.85227,-0.25996 -4.96014,-0.25996 -4.28424,0 -4.96015,0.0383 -4.96015,0.28076 0,0.15442 -0.12634,0.28076 -0.28076,0.28076 -0.19015,0 -0.28076,0.1903 -0.28076,0.58967 0,1.5821 -0.41176,9.99412 -0.5591,11.42216 -0.10115,0.98032 -0.32138,1.92519 -0.55586,2.3848 -1.185,2.3228 -10.7366,8.26378 -16.06962,9.9951 -2.35394,0.76419 -4.84535,1.30597 -7.52257,1.63586 -2.13097,0.26258 -18.2656,0.40238 -20.61012,0.17858 z"
     id="path5812"
     inkscape:connector-curvature="0" />
  <path
     style="opacity:1;fill:#000000;fill-opacity:1;fill-rule:nonzero;stroke:none;stroke-width:0.93587661;stroke-linecap:round;stroke-linejoin:round;stroke-miterlimit:4;stroke-dasharray:none;stroke-opacity:0;paint-order:fill markers stroke"
     d="m 124.94769,171.09354 c -2.99379,-0.28577 -5.60839,-1.19534 -8.05711,-2.80289 -1.67446,-1.09927 -2.7687,-2.13382 -4.7037,-4.44715 -0.7944,-0.9497 -1.70693,-1.86252 -2.02785,-2.02847 -0.36733,-0.18995 -1.42471,-0.36291 -2.85409,-0.46684 -1.24882,-0.0908 -2.29164,-0.16768 -2.31738,-0.17083 -0.0257,-0.003 -0.0468,-6.11233 -0.0468,-13.57595 0,-10.731 0.049,-13.57036 0.23397,-13.57092 6.23299,-0.019 23.45635,-0.6778 31.96018,-1.22246 9.59618,-0.61463 28.26522,-2.20035 33.17683,-2.81801 l 0.88908,-0.1118 v 2.35725 2.35726 h 4.92962 4.92961 l 0.12907,-29.6205 c 0.15713,-36.062413 0.38761,-48.042447 0.98137,-51.011248 0.0929,-0.464586 0.29548,-0.67632 0.95023,-0.993281 1.40001,-0.677732 2.8796,-0.169587 3.23812,1.112089 0.10503,0.375465 0.2746,3.335874 0.37683,6.578686 0.19353,6.138812 0.55734,53.734704 0.56045,73.319424 l 0.002,11.2708 -0.57693,0.65708 c -0.95114,1.08329 -2.80458,1.3733 -3.92994,0.61492 -0.34735,-0.23408 -0.83077,-0.71839 -1.07426,-1.07626 -0.24349,-0.35786 -0.56135,-0.63896 -0.70636,-0.62466 -0.14509,0.0143 -0.26374,-0.091 -0.26374,-0.23397 0,-0.2153 -0.85227,-0.25996 -4.96014,-0.25996 -4.28424,0 -4.96015,0.0383 -4.96015,0.28076 0,0.15442 -0.12634,0.28076 -0.28076,0.28076 -0.19015,0 -0.28076,0.1903 -0.28076,0.58967 0,1.5821 -0.41176,9.99412 -0.5591,11.42216 -0.10115,0.98032 -0.32138,1.92519 -0.55586,2.3848 -1.185,2.3228 -10.7366,8.26378 -16.06962,9.9951 -2.35394,0.76419 -4.84535,1.30597 -7.52257,1.63586 -2.13097,0.26258 -18.2656,0.40238 -20.61012,0.17858 z"
     id="path5814"
     inkscape:connector-curvature="0" />
  <path
     style="opacity:1;fill:#000000;fill-opacity:1;fill-rule:nonzero;stroke:none;stroke-width:0.93587661;stroke-linecap:round;stroke-linejoin:round;stroke-miterlimit:4;stroke-dasharray:none;stroke-opacity:0;paint-order:fill markers stroke"
     d="m 104.94077,123.83658 v -5.70241 l 7.06587,-0.0532 7.06586,-0.0532 0.93588,-0.67994 c 2.24831,-1.63346 4.84912,-2.54626 7.97655,-2.79954 2.61213,-0.21154 6.15895,0.0195 7.559,0.49244 1.07667,0.36368 3.21037,1.58717 3.92831,2.25253 0.26928,0.24956 0.56949,0.45375 0.66713,0.45375 0.0976,0 0.17752,0.0632 0.17751,0.14038 -1e-5,0.0772 6.35927,0.11099 14.13174,0.0751 7.77247,-0.0359 14.13176,-0.0253 14.13176,0.0236 0,0.0489 0.50621,1.75499 1.1249,3.79137 0.6187,2.03638 1.10008,3.72733 1.06973,3.75768 -0.15553,0.15553 -17.90997,1.77436 -26.34025,2.40167 -12.53603,0.93284 -27.3637,1.6017 -35.51652,1.60212 l -3.97747,2.1e-4 z"
     id="path5816"
     inkscape:connector-curvature="0" />
  <path
     style="opacity:1;fill:#000000;fill-opacity:0;fill-rule:nonzero;stroke:none;stroke-width:0.93587661;stroke-linecap:round;stroke-linejoin:round;stroke-miterlimit:4;stroke-dasharray:none;stroke-opacity:0;paint-order:fill markers stroke"
     d="m 106.94077,123.83658 v -5.70241 l -7.06587,-0.0532 -7.06586,-0.0532 -0.93588,-0.67994 c -2.24831,-1.63346 -4.84912,-2.54626 -7.97655,-2.79954 -2.61213,-0.21154 -6.15895,0.0195 -7.559,0.49244 -1.07667,0.36368 -3.21037,1.58717 -3.92831,2.25253 -0.26928,0.24956 -0.56949,0.45375 -0.66713,0.45375 -0.0976,0 -0.17752,0.0632 -0.17751,0.14038 1e-5,0.0772 -6.35927,0.11099 -14.13174,0.0751 -7.77247,-0.0359 -14.13176,-0.0253 -14.13176,0.0236 0,0.0489 -0.50621,1.75499 -1.1249,3.79137 -0.6187,2.03638 -1.10008,3.72733 -1.06973,3.75768 0.15553,0.15553 17.90997,1.77436 26.34025,2.40167 12.53603,0.93284 27.3637,1.6017 35.51652,1.60212 l 3.97747,2.1e-4 z"
     id="path5796-6"
     inkscape:connector-curvature="0" />
  <path
     style="opacity:1;fill:#000000;fill-opacity:0;fill-rule:nonzero;stroke:none;stroke-width:0.93587661;stroke-linecap:round;stroke-linejoin:round;stroke-miterlimit:4;stroke-dasharray:none;stroke-opacity:0;paint-order:fill markers stroke"
     d="m 106.94077,123.83658 v -5.70241 l -7.06587,-0.0532 -7.06586,-0.0532 -0.93588,-0.67994 c -2.24831,-1.63346 -4.84912,-2.54626 -7.97655,-2.79954 -2.61213,-0.21154 -6.15895,0.0195 -7.559,0.49244 -1.07667,0.36368 -3.21037,1.58717 -3.92831,2.25253 -0.26928,0.24956 -0.56949,0.45375 -0.66713,0.45375 -0.0976,0 -0.17752,0.0632 -0.17751,0.14038 1e-5,0.0772 -6.35927,0.11099 -14.13174,0.0751 -7.77247,-0.0359 -14.13176,-0.0253 -14.13176,0.0236 0,0.0489 -0.50621,1.75499 -1.1249,3.79137 -0.6187,2.03638 -1.10008,3.72733 -1.06973,3.75768 0.15553,0.15553 17.90997,1.77436 26.34025,2.40167 12.53603,0.93284 27.3637,1.6017 35.51652,1.60212 l 3.97747,2.1e-4 z"
     id="path5798-1"
     inkscape:connector-curvature="0" />
  <path
     style="opacity:1;fill:#000000;fill-opacity:0;fill-rule:nonzero;stroke:none;stroke-width:0.93587661;stroke-linecap:round;stroke-linejoin:round;stroke-miterlimit:4;stroke-dasharray:none;stroke-opacity:0;paint-order:fill markers stroke"
     d="m 106.94077,123.83658 v -5.70241 l -7.06587,-0.0532 -7.06586,-0.0532 -0.93588,-0.67994 c -2.24831,-1.63346 -4.84912,-2.54626 -7.97655,-2.79954 -2.61213,-0.21154 -6.15895,0.0195 -7.559,0.49244 -1.07667,0.36368 -3.21037,1.58717 -3.92831,2.25253 -0.26928,0.24956 -0.56949,0.45375 -0.66713,0.45375 -0.0976,0 -0.17752,0.0632 -0.17751,0.14038 1e-5,0.0772 -6.35927,0.11099 -14.13174,0.0751 -7.77247,-0.0359 -14.13176,-0.0253 -14.13176,0.0236 0,0.0489 -0.50621,1.75499 -1.1249,3.79137 -0.6187,2.03638 -1.10008,3.72733 -1.06973,3.75768 0.15553,0.15553 17.90997,1.77436 26.34025,2.40167 12.53603,0.93284 27.3637,1.6017 35.51652,1.60212 l 3.97747,2.1e-4 z"
     id="path5800-1"
     inkscape:connector-curvature="0" />
  <path
     style="opacity:1;fill:#000000;fill-opacity:0;fill-rule:nonzero;stroke:none;stroke-width:0.93587661;stroke-linecap:round;stroke-linejoin:round;stroke-miterlimit:4;stroke-dasharray:none;stroke-opacity:0;paint-order:fill markers stroke"
     d="m 86.93385,171.09354 c 2.99379,-0.28577 5.60839,-1.19534 8.05711,-2.80289 1.67446,-1.09927 2.7687,-2.13382 4.7037,-4.44715 0.7944,-0.9497 1.70693,-1.86252 2.02785,-2.02847 0.36733,-0.18995 1.42471,-0.36291 2.85409,-0.46684 1.24882,-0.0908 2.29164,-0.16768 2.31738,-0.17083 0.0257,-0.003 0.0468,-6.11233 0.0468,-13.57595 0,-10.731 -0.049,-13.57036 -0.23397,-13.57092 -6.23299,-0.019 -23.45635,-0.6778 -31.96018,-1.22246 -9.59618,-0.61463 -28.26522,-2.20035 -33.17683,-2.81801 l -0.88908,-0.1118 v 2.35725 2.35726 H 35.7511 30.82149 l -0.12907,-29.6205 C 30.53529,68.90982 30.30481,56.92979 29.71105,53.96098 29.61815,53.4964 29.41557,53.28466 28.76082,52.9677 c -1.40001,-0.67773 -2.8796,-0.16958 -3.23812,1.11209 -0.10503,0.37547 -0.2746,3.33588 -0.37683,6.57869 -0.19353,6.13881 -0.55734,53.7347 -0.56045,73.31942 l -0.002,11.2708 0.57693,0.65708 c 0.95114,1.08329 2.80458,1.3733 3.92994,0.61492 0.34735,-0.23408 0.83077,-0.71839 1.07426,-1.07626 0.24349,-0.35786 0.56135,-0.63896 0.70636,-0.62466 0.14509,0.0143 0.26374,-0.091 0.26374,-0.23397 0,-0.2153 0.85227,-0.25996 4.96014,-0.25996 4.28424,0 4.96015,0.0383 4.96015,0.28076 0,0.15442 0.12634,0.28076 0.28076,0.28076 0.19015,0 0.28076,0.1903 0.28076,0.58967 0,1.5821 0.41176,9.99412 0.5591,11.42216 0.10115,0.98032 0.32138,1.92519 0.55586,2.3848 1.185,2.3228 10.7366,8.26378 16.06962,9.9951 2.35394,0.76419 4.84535,1.30597 7.52257,1.63586 2.13097,0.26258 18.2656,0.40238 20.61012,0.17858 z"
     id="path5802-2"
     inkscape:connector-curvature="0" />
  <path
     style="opacity:1;fill:#000000;fill-opacity:0;fill-rule:nonzero;stroke:none;stroke-width:0.93587661;stroke-linecap:round;stroke-linejoin:round;stroke-miterlimit:4;stroke-dasharray:none;stroke-opacity:0;paint-order:fill markers stroke"
     d="m 86.93385,171.09354 c 2.99379,-0.28577 5.60839,-1.19534 8.05711,-2.80289 1.67446,-1.09927 2.7687,-2.13382 4.7037,-4.44715 0.7944,-0.9497 1.70693,-1.86252 2.02785,-2.02847 0.36733,-0.18995 1.42471,-0.36291 2.85409,-0.46684 1.24882,-0.0908 2.29164,-0.16768 2.31738,-0.17083 0.0257,-0.003 0.0468,-6.11233 0.0468,-13.57595 0,-10.731 -0.049,-13.57036 -0.23397,-13.57092 -6.23299,-0.019 -23.45635,-0.6778 -31.96018,-1.22246 -9.59618,-0.61463 -28.26522,-2.20035 -33.17683,-2.81801 l -0.88908,-0.1118 v 2.35725 2.35726 H 35.7511 30.82149 l -0.12907,-29.6205 C 30.53529,68.90982 30.30481,56.92979 29.71105,53.96098 29.61815,53.4964 29.41557,53.28466 28.76082,52.9677 c -1.40001,-0.67773 -2.8796,-0.16958 -3.23812,1.11209 -0.10503,0.37547 -0.2746,3.33588 -0.37683,6.57869 -0.19353,6.13881 -0.55734,53.7347 -0.56045,73.31942 l -0.002,11.2708 0.57693,0.65708 c 0.95114,1.08329 2.80458,1.3733 3.92994,0.61492 0.34735,-0.23408 0.83077,-0.71839 1.07426,-1.07626 0.24349,-0.35786 0.56135,-0.63896 0.70636,-0.62466 0.14509,0.0143 0.26374,-0.091 0.26374,-0.23397 0,-0.2153 0.85227,-0.25996 4.96014,-0.25996 4.28424,0 4.96015,0.0383 4.96015,0.28076 0,0.15442 0.12634,0.28076 0.28076,0.28076 0.19015,0 0.28076,0.1903 0.28076,0.58967 0,1.5821 0.41176,9.99412 0.5591,11.42216 0.10115,0.98032 0.32138,1.92519 0.55586,2.3848 1.185,2.3228 10.7366,8.26378 16.06962,9.9951 2.35394,0.76419 4.84535,1.30597 7.52257,1.63586 2.13097,0.26258 18.2656,0.40238 20.61012,0.17858 z"
     id="path5804-3"
     inkscape:connector-curvature="0" />
  <path
     style="opacity:1;fill:#000000;fill-opacity:0;fill-rule:nonzero;stroke:none;stroke-width:0.93587661;stroke-linecap:round;stroke-linejoin:round;stroke-miterlimit:4;stroke-dasharray:none;stroke-opacity:0;paint-order:fill markers stroke"
     d="m 86.93385,171.09354 c 2.99379,-0.28577 5.60839,-1.19534 8.05711,-2.80289 1.67446,-1.09927 2.7687,-2.13382 4.7037,-4.44715 0.7944,-0.9497 1.70693,-1.86252 2.02785,-2.02847 0.36733,-0.18995 1.42471,-0.36291 2.85409,-0.46684 1.24882,-0.0908 2.29164,-0.16768 2.31738,-0.17083 0.0257,-0.003 0.0468,-6.11233 0.0468,-13.57595 0,-10.731 -0.049,-13.57036 -0.23397,-13.57092 -6.23299,-0.019 -23.45635,-0.6778 -31.96018,-1.22246 -9.59618,-0.61463 -28.26522,-2.20035 -33.17683,-2.81801 l -0.88908,-0.1118 v 2.35725 2.35726 H 35.7511 30.82149 l -0.12907,-29.6205 C 30.53529,68.90982 30.30481,56.92979 29.71105,53.96098 29.61815,53.4964 29.41557,53.28466 28.76082,52.9677 c -1.40001,-0.67773 -2.8796,-0.16958 -3.23812,1.11209 -0.10503,0.37547 -0.2746,3.33588 -0.37683,6.57869 -0.19353,6.13881 -0.55734,53.7347 -0.56045,73.31942 l -0.002,11.2708 0.57693,0.65708 c 0.95114,1.08329 2.80458,1.3733 3.92994,0.61492 0.34735,-0.23408 0.83077,-0.71839 1.07426,-1.07626 0.24349,-0.35786 0.56135,-0.63896 0.70636,-0.62466 0.14509,0.0143 0.26374,-0.091 0.26374,-0.23397 0,-0.2153 0.85227,-0.25996 4.96014,-0.25996 4.28424,0 4.96015,0.0383 4.96015,0.28076 0,0.15442 0.12634,0.28076 0.28076,0.28076 0.19015,0 0.28076,0.1903 0.28076,0.58967 0,1.5821 0.41176,9.99412 0.5591,11.42216 0.10115,0.98032 0.32138,1.92519 0.55586,2.3848 1.185,2.3228 10.7366,8.26378 16.06962,9.9951 2.35394,0.76419 4.84535,1.30597 7.52257,1.63586 2.13097,0.26258 18.2656,0.40238 20.61012,0.17858 z"
     id="path5806-3"
     inkscape:connector-curvature="0" />
  <path
     style="opacity:1;fill:#000000;fill-opacity:0;fill-rule:nonzero;stroke:none;stroke-width:0.93587661;stroke-linecap:round;stroke-linejoin:round;stroke-miterlimit:4;stroke-dasharray:none;stroke-opacity:0;paint-order:fill markers stroke"
     d="m 86.93385,171.09354 c 2.99379,-0.28577 5.60839,-1.19534 8.05711,-2.80289 1.67446,-1.09927 2.7687,-2.13382 4.7037,-4.44715 0.7944,-0.9497 1.70693,-1.86252 2.02785,-2.02847 0.36733,-0.18995 1.42471,-0.36291 2.85409,-0.46684 1.24882,-0.0908 2.29164,-0.16768 2.31738,-0.17083 0.0257,-0.003 0.0468,-6.11233 0.0468,-13.57595 0,-10.731 -0.049,-13.57036 -0.23397,-13.57092 -6.23299,-0.019 -23.45635,-0.6778 -31.96018,-1.22246 -9.59618,-0.61463 -28.26522,-2.20035 -33.17683,-2.81801 l -0.88908,-0.1118 v 2.35725 2.35726 H 35.7511 30.82149 l -0.12907,-29.6205 C 30.53529,68.90982 30.30481,56.92979 29.71105,53.96098 29.61815,53.4964 29.41557,53.28466 28.76082,52.9677 c -1.40001,-0.67773 -2.8796,-0.16958 -3.23812,1.11209 -0.10503,0.37547 -0.2746,3.33588 -0.37683,6.57869 -0.19353,6.13881 -0.55734,53.7347 -0.56045,73.31942 l -0.002,11.2708 0.57693,0.65708 c 0.95114,1.08329 2.80458,1.3733 3.92994,0.61492 0.34735,-0.23408 0.83077,-0.71839 1.07426,-1.07626 0.24349,-0.35786 0.56135,-0.63896 0.70636,-0.62466 0.14509,0.0143 0.26374,-0.091 0.26374,-0.23397 0,-0.2153 0.85227,-0.25996 4.96014,-0.25996 4.28424,0 4.96015,0.0383 4.96015,0.28076 0,0.15442 0.12634,0.28076 0.28076,0.28076 0.19015,0 0.28076,0.1903 0.28076,0.58967 0,1.5821 0.41176,9.99412 0.5591,11.42216 0.10115,0.98032 0.32138,1.92519 0.55586,2.3848 1.185,2.3228 10.7366,8.26378 16.06962,9.9951 2.35394,0.76419 4.84535,1.30597 7.52257,1.63586 2.13097,0.26258 18.2656,0.40238 20.61012,0.17858 z"
     id="path5808-5"
     inkscape:connector-curvature="0" />
  <path
     style="opacity:1;fill:#000000;fill-opacity:0;fill-rule:nonzero;stroke:none;stroke-width:0.93587661;stroke-linecap:round;stroke-linejoin:round;stroke-miterlimit:4;stroke-dasharray:none;stroke-opacity:0;paint-order:fill markers stroke"
     d="m 86.93385,171.09354 c 2.99379,-0.28577 5.60839,-1.19534 8.05711,-2.80289 1.67446,-1.09927 2.7687,-2.13382 4.7037,-4.44715 0.7944,-0.9497 1.70693,-1.86252 2.02785,-2.02847 0.36733,-0.18995 1.42471,-0.36291 2.85409,-0.46684 1.24882,-0.0908 2.29164,-0.16768 2.31738,-0.17083 0.0257,-0.003 0.0468,-6.11233 0.0468,-13.57595 0,-10.731 -0.049,-13.57036 -0.23397,-13.57092 -6.23299,-0.019 -23.45635,-0.6778 -31.96018,-1.22246 -9.59618,-0.61463 -28.26522,-2.20035 -33.17683,-2.81801 l -0.88908,-0.1118 v 2.35725 2.35726 H 35.7511 30.82149 l -0.12907,-29.6205 C 30.53529,68.90982 30.30481,56.92979 29.71105,53.96098 29.61815,53.4964 29.41557,53.28466 28.76082,52.9677 c -1.40001,-0.67773 -2.8796,-0.16958 -3.23812,1.11209 -0.10503,0.37547 -0.2746,3.33588 -0.37683,6.57869 -0.19353,6.13881 -0.55734,53.7347 -0.56045,73.31942 l -0.002,11.2708 0.57693,0.65708 c 0.95114,1.08329 2.80458,1.3733 3.92994,0.61492 0.34735,-0.23408 0.83077,-0.71839 1.07426,-1.07626 0.24349,-0.35786 0.56135,-0.63896 0.70636,-0.62466 0.14509,0.0143 0.26374,-0.091 0.26374,-0.23397 0,-0.2153 0.85227,-0.25996 4.96014,-0.25996 4.28424,0 4.96015,0.0383 4.96015,0.28076 0,0.15442 0.12634,0.28076 0.28076,0.28076 0.19015,0 0.28076,0.1903 0.28076,0.58967 0,1.5821 0.41176,9.99412 0.5591,11.42216 0.10115,0.98032 0.32138,1.92519 0.55586,2.3848 1.185,2.3228 10.7366,8.26378 16.06962,9.9951 2.35394,0.76419 4.84535,1.30597 7.52257,1.63586 2.13097,0.26258 18.2656,0.40238 20.61012,0.17858 z"
     id="path5810-8"
     inkscape:connector-curvature="0" />
  <path
     style="opacity:1;fill:#000000;fill-opacity:0;fill-rule:nonzero;stroke:none;stroke-width:0.93587661;stroke-linecap:round;stroke-linejoin:round;stroke-miterlimit:4;stroke-dasharray:none;stroke-opacity:0;paint-order:fill markers stroke"
     d="m 86.93385,171.09354 c 2.99379,-0.28577 5.60839,-1.19534 8.05711,-2.80289 1.67446,-1.09927 2.7687,-2.13382 4.7037,-4.44715 0.7944,-0.9497 1.70693,-1.86252 2.02785,-2.02847 0.36733,-0.18995 1.42471,-0.36291 2.85409,-0.46684 1.24882,-0.0908 2.29164,-0.16768 2.31738,-0.17083 0.0257,-0.003 0.0468,-6.11233 0.0468,-13.57595 0,-10.731 -0.049,-13.57036 -0.23397,-13.57092 -6.23299,-0.019 -23.45635,-0.6778 -31.96018,-1.22246 -9.59618,-0.61463 -28.26522,-2.20035 -33.17683,-2.81801 l -0.88908,-0.1118 v 2.35725 2.35726 H 35.7511 30.82149 l -0.12907,-29.6205 C 30.53529,68.90982 30.30481,56.92979 29.71105,53.96098 29.61815,53.4964 29.41557,53.28466 28.76082,52.9677 c -1.40001,-0.67773 -2.8796,-0.16958 -3.23812,1.11209 -0.10503,0.37547 -0.2746,3.33588 -0.37683,6.57869 -0.19353,6.13881 -0.55734,53.7347 -0.56045,73.31942 l -0.002,11.2708 0.57693,0.65708 c 0.95114,1.08329 2.80458,1.3733 3.92994,0.61492 0.34735,-0.23408 0.83077,-0.71839 1.07426,-1.07626 0.24349,-0.35786 0.56135,-0.63896 0.70636,-0.62466 0.14509,0.0143 0.26374,-0.091 0.26374,-0.23397 0,-0.2153 0.85227,-0.25996 4.96014,-0.25996 4.28424,0 4.96015,0.0383 4.96015,0.28076 0,0.15442 0.12634,0.28076 0.28076,0.28076 0.19015,0 0.28076,0.1903 0.28076,0.58967 0,1.5821 0.41176,9.99412 0.5591,11.42216 0.10115,0.98032 0.32138,1.92519 0.55586,2.3848 1.185,2.3228 10.7366,8.26378 16.06962,9.9951 2.35394,0.76419 4.84535,1.30597 7.52257,1.63586 2.13097,0.26258 18.2656,0.40238 20.61012,0.17858 z"
     id="path5812-6"
     inkscape:connector-curvature="0" />
  <path
     style="opacity:1;fill:#000000;fill-opacity:1;fill-rule:nonzero;stroke:none;stroke-width:0.93587661;stroke-linecap:round;stroke-linejoin:round;stroke-miterlimit:4;stroke-dasharray:none;stroke-opacity:0;paint-order:fill markers stroke"
     d="m 86.93385,171.09354 c 2.99379,-0.28577 5.60839,-1.19534 8.05711,-2.80289 1.67446,-1.09927 2.7687,-2.13382 4.7037,-4.44715 0.7944,-0.9497 1.70693,-1.86252 2.02785,-2.02847 0.36733,-0.18995 1.42471,-0.36291 2.85409,-0.46684 1.24882,-0.0908 2.29164,-0.16768 2.31738,-0.17083 0.0257,-0.003 0.0468,-6.11233 0.0468,-13.57595 0,-10.731 -0.049,-13.57036 -0.23397,-13.57092 -6.23299,-0.019 -23.45635,-0.6778 -31.96018,-1.22246 -9.59618,-0.61463 -28.26522,-2.20035 -33.17683,-2.81801 l -0.88908,-0.1118 v 2.35725 2.35726 H 35.7511 30.82149 l -0.12907,-29.6205 C 30.53529,68.90982 30.30481,56.92979 29.71105,53.96098 29.61815,53.4964 29.41557,53.28466 28.76082,52.9677 c -1.40001,-0.67773 -2.8796,-0.16958 -3.23812,1.11209 -0.10503,0.37547 -0.2746,3.33588 -0.37683,6.57869 -0.19353,6.13881 -0.55734,53.7347 -0.56045,73.31942 l -0.002,11.2708 0.57693,0.65708 c 0.95114,1.08329 2.80458,1.3733 3.92994,0.61492 0.34735,-0.23408 0.83077,-0.71839 1.07426,-1.07626 0.24349,-0.35786 0.56135,-0.63896 0.70636,-0.62466 0.14509,0.0143 0.26374,-0.091 0.26374,-0.23397 0,-0.2153 0.85227,-0.25996 4.96014,-0.25996 4.28424,0 4.96015,0.0383 4.96015,0.28076 0,0.15442 0.12634,0.28076 0.28076,0.28076 0.19015,0 0.28076,0.1903 0.28076,0.58967 0,1.5821 0.41176,9.99412 0.5591,11.42216 0.10115,0.98032 0.32138,1.92519 0.55586,2.3848 1.185,2.3228 10.7366,8.26378 16.06962,9.9951 2.35394,0.76419 4.84535,1.30597 7.52257,1.63586 2.13097,0.26258 18.2656,0.40238 20.61012,0.17858 z"
     id="path5814-6"
     inkscape:connector-curvature="0" />
  <path
     style="opacity:1;fill:#000000;fill-opacity:1;fill-rule:nonzero;stroke:none;stroke-width:0.93587661;stroke-linecap:round;stroke-linejoin:round;stroke-miterlimit:4;stroke-dasharray:none;stroke-opacity:0;paint-order:fill markers stroke"
     d="m 106.94077,123.83658 v -5.70241 l -7.06587,-0.0532 -7.06586,-0.0532 -0.93588,-0.67994 c -2.24831,-1.63346 -4.84912,-2.54626 -7.97655,-2.79954 -2.61213,-0.21154 -6.15895,0.0195 -7.559,0.49244 -1.07667,0.36368 -3.21037,1.58717 -3.92831,2.25253 -0.26928,0.24956 -0.56949,0.45375 -0.66713,0.45375 -0.0976,0 -0.17752,0.0632 -0.17751,0.14038 1e-5,0.0772 -6.35927,0.11099 -14.13174,0.0751 -7.77247,-0.0359 -14.13176,-0.0253 -14.13176,0.0236 0,0.0489 -0.50621,1.75499 -1.1249,3.79137 -0.6187,2.03638 -1.10008,3.72733 -1.06973,3.75768 0.15553,0.15553 17.90997,1.77436 26.34025,2.40167 12.53603,0.93284 27.3637,1.6017 35.51652,1.60212 l 3.97747,2.1e-4 z"
     id="path5816-3"
     inkscape:connector-curvature="0" />
</svg>
